<svg width="70" height="58" viewBox="0 0 70 58" fill="none" xmlns="http://www.w3.org/2000/svg">
<path d="M5 26.3611H35V31.6333H5V26.3611Z" fill="#4E4E4E"/>
<path d="M0 13.1805H25V18.4528H0V13.1805Z" fill="#4E4E4E"/>
<path d="M69.7973 27.9586L62.2973 9.50581C62.1048 9.03152 61.7845 8.62728 61.3761 8.34328C60.9676 8.05929 60.4891 7.90804 59.9998 7.90833H52.4998V2.63611C52.4998 1.93697 52.2364 1.26647 51.7676 0.772099C51.2987 0.277733 50.6629 0 49.9998 0H9.99986V5.27222H47.4998V38.3712C46.3606 39.0687 45.3637 39.9971 44.5665 41.1029C43.7692 42.2086 43.1875 43.4699 42.8548 44.8139H27.1448C26.5364 42.3289 25.0893 40.1633 23.0748 38.7229C21.0604 37.2824 18.6169 36.6662 16.2024 36.9896C13.7878 37.313 11.568 38.5538 9.95905 40.4795C8.35008 42.4052 7.4624 44.8835 7.4624 47.45C7.4624 50.0164 8.35008 52.4947 9.95905 54.4204C11.568 56.3461 13.7878 57.587 16.2024 57.9104C18.6169 58.2337 21.0604 57.6175 23.0748 56.1771C25.0893 54.7367 26.5364 52.571 27.1448 50.0861H42.8548C43.3987 52.3485 44.6424 54.3551 46.3893 55.7884C48.1361 57.2218 50.2864 58 52.4998 58C54.7133 58 56.8635 57.2218 58.6104 55.7884C60.3572 54.3551 61.601 52.3485 62.1448 50.0861H67.4998C68.1628 50.0861 68.7987 49.8083 69.2676 49.314C69.7364 48.8196 69.9998 48.1491 69.9998 47.45V28.9972C69.9999 28.6401 69.931 28.2867 69.7973 27.9586V27.9586ZM17.4998 52.7222C16.5109 52.7222 15.5442 52.413 14.722 51.8336C13.8998 51.2543 13.2589 50.4309 12.8805 49.4676C12.502 48.5042 12.403 47.4441 12.5959 46.4214C12.7889 45.3987 13.2651 44.4593 13.9643 43.7219C14.6636 42.9846 15.5545 42.4825 16.5244 42.279C17.4943 42.0756 18.4996 42.18 19.4133 42.5791C20.3269 42.9781 21.1078 43.6539 21.6572 44.5209C22.2066 45.3879 22.4998 46.4072 22.4998 47.45C22.4985 48.8478 21.9713 50.188 21.0339 51.1764C20.0965 52.1649 18.8255 52.7208 17.4998 52.7222V52.7222ZM52.4998 13.1805H58.3498L63.7098 26.3611H52.4998V13.1805ZM52.4998 52.7222C51.5109 52.7222 50.5442 52.413 49.722 51.8336C48.8997 51.2543 48.2589 50.4309 47.8804 49.4676C47.502 48.5042 47.403 47.4441 47.5959 46.4214C47.7888 45.3987 48.265 44.4593 48.9643 43.7219C49.6635 42.9846 50.5545 42.4825 51.5244 42.279C52.4943 42.0756 53.4996 42.18 54.4132 42.5791C55.3269 42.9781 56.1077 43.6539 56.6572 44.5209C57.2066 45.3879 57.4998 46.4072 57.4998 47.45C57.4985 48.8478 56.9713 50.188 56.0339 51.1764C55.0965 52.1649 53.8255 52.7208 52.4998 52.7222ZM64.9998 44.8139H62.1448C61.5941 42.5558 60.3484 40.5544 58.6029 39.1232C56.8574 37.692 54.7109 36.912 52.4998 36.9055V31.6333H64.9998V44.8139Z" fill="#4E4E4E"/>
</svg>
