<svg width="62" height="61" viewBox="0 0 62 61" fill="none" xmlns="http://www.w3.org/2000/svg">
<path d="M31 36.144L31.6453 34.9787C31.4478 34.8694 31.2257 34.8121 31 34.8121C30.7743 34.8121 30.5522 34.8694 30.3547 34.9787L31 36.144ZM25.232 39.3333L23.9147 39.12C23.8742 39.3672 23.9042 39.6208 24.0012 39.8517C24.0982 40.0827 24.2583 40.2816 24.4631 40.4258C24.6679 40.5699 24.9092 40.6535 25.1593 40.6669C25.4095 40.6802 25.6583 40.6229 25.8773 40.5013L25.232 39.3333ZM26.3333 32.5787L27.648 32.792C27.6815 32.5864 27.6664 32.3759 27.6039 32.1772C27.5414 31.9786 27.4332 31.7973 27.288 31.648L26.3333 32.5813V32.5787ZM21.6667 27.7973L21.4667 26.4773C21.2239 26.5139 20.996 26.6168 20.808 26.7746C20.62 26.9325 20.4792 27.1392 20.4011 27.3719C20.3231 27.6047 20.3108 27.8544 20.3657 28.0937C20.4205 28.333 20.5404 28.5525 20.712 28.728L21.6667 27.7947V27.7973ZM28.1147 26.8107L28.3173 28.1307C28.5338 28.0975 28.7387 28.0116 28.914 27.8804C29.0894 27.7492 29.2297 27.5769 29.3227 27.3787L28.1147 26.8107V26.8107ZM31 20.6667L32.208 20.1013C32.1006 19.8715 31.93 19.6771 31.716 19.5409C31.502 19.4047 31.2536 19.3324 31 19.3324C30.7464 19.3324 30.498 19.4047 30.284 19.5409C30.07 19.6771 29.8994 19.8715 29.792 20.1013L31 20.6667ZM33.8853 26.8107L32.6773 27.3787C32.7703 27.5769 32.9106 27.7492 33.086 27.8804C33.2613 28.0116 33.4662 28.0975 33.6827 28.1307L33.8853 26.8107V26.8107ZM40.3333 27.7973L41.288 28.728C41.4596 28.5525 41.5795 28.333 41.6343 28.0937C41.6892 27.8544 41.6769 27.6047 41.5989 27.3719C41.5208 27.1392 41.38 26.9325 41.192 26.7746C41.004 26.6168 40.7761 26.5139 40.5333 26.4773L40.3333 27.7973ZM35.6667 32.5787L34.712 31.648C34.5664 31.7976 34.458 31.9793 34.3955 32.1785C34.3329 32.3776 34.3181 32.5887 34.352 32.7947L35.6667 32.5813V32.5787ZM36.768 39.3333L36.1227 40.5013C36.3419 40.6231 36.591 40.6805 36.8415 40.6671C37.0919 40.6537 37.3334 40.5699 37.5384 40.4253C37.7433 40.2808 37.9034 40.0814 38.0001 39.8501C38.0969 39.6187 38.1264 39.3647 38.0853 39.1173L36.768 39.3333ZM30.3547 34.9787L24.5867 38.1653L25.8773 40.5013L31.6453 37.312L30.3547 34.9787V34.9787ZM26.5467 39.5467L27.648 32.7947L25.0187 32.3653L23.9147 39.1173L26.5467 39.5493V39.5467ZM27.288 31.648L22.6213 26.864L20.712 28.728L25.3787 33.5093L27.288 31.648V31.648ZM21.8667 29.1147L28.3173 28.128L27.9147 25.4933L21.4667 26.48L21.8667 29.1147V29.1147ZM29.3227 27.3787L32.208 21.232L29.792 20.1013L26.9093 26.2453L29.3227 27.3787V27.3787ZM29.792 21.232L32.68 27.3787L35.0933 26.2453L32.2107 20.1013L29.7947 21.232H29.792ZM33.6853 28.1333L40.1333 29.1173L40.5333 26.48L34.0853 25.496L33.6853 28.1333ZM39.3787 26.8667L34.712 31.6507L36.6213 33.512L41.288 28.7307L39.3787 26.8667ZM34.352 32.7947L35.4533 39.5493L38.0853 39.1173L36.9813 32.3653L34.352 32.792V32.7947ZM37.4133 38.1653L31.6453 34.9787L30.3547 37.312L36.1227 40.5013L37.4133 38.1653V38.1653ZM31 47.3333C26.4029 47.3333 21.9941 45.5071 18.7435 42.2565C15.4929 39.0059 13.6667 34.5971 13.6667 30H11C11 35.3043 13.1071 40.3914 16.8579 44.1421C20.6086 47.8929 25.6957 50 31 50V47.3333ZM48.3333 30C48.3333 32.2762 47.885 34.5302 47.0139 36.6332C46.1428 38.7362 44.8661 40.647 43.2565 42.2565C41.647 43.8661 39.7362 45.1428 37.6332 46.0139C35.5302 46.885 33.2762 47.3333 31 47.3333V50C36.3043 50 41.3914 47.8929 45.1421 44.1421C48.8929 40.3914 51 35.3043 51 30H48.3333ZM31 12.6667C33.2762 12.6667 35.5302 13.115 37.6332 13.9861C39.7362 14.8572 41.647 16.1339 43.2565 17.7435C44.8661 19.353 46.1428 21.2638 47.0139 23.3668C47.885 25.4698 48.3333 27.7238 48.3333 30H51C51 24.6957 48.8929 19.6086 45.1421 15.8579C41.3914 12.1071 36.3043 10 31 10V12.6667ZM31 10C25.6957 10 20.6086 12.1071 16.8579 15.8579C13.1071 19.6086 11 24.6957 11 30H13.6667C13.6667 25.4029 15.4929 20.9941 18.7435 17.7435C21.9941 14.4929 26.4029 12.6667 31 12.6667V10Z" fill="#4E4E4E"/>
<path d="M29.6484 2.61553C29.809 2.42375 30.014 2.26868 30.2479 2.16204C30.4818 2.05541 30.7385 2 30.9986 2C31.2587 2 31.5154 2.05541 31.7493 2.16204C31.9832 2.26868 32.1882 2.42375 32.3488 2.61553L37.5235 8.78229C37.7335 9.0331 38.0183 9.21977 38.3417 9.31859C38.6652 9.4174 39.0126 9.42392 39.34 9.3373L47.3925 7.1977C47.6425 7.13091 47.9055 7.11824 48.1615 7.16064C48.4175 7.20304 48.6599 7.29941 48.8704 7.44247C49.0809 7.58552 49.254 7.77153 49.3765 7.98645C49.4991 8.20136 49.568 8.43957 49.5779 8.68308L49.8926 16.5256C49.9058 16.8442 50.0197 17.1519 50.2199 17.4097C50.4201 17.6675 50.6974 17.8637 51.0168 17.9734L58.8748 20.6815C59.1187 20.7653 59.3392 20.9 59.5195 21.0754C59.6998 21.2508 59.8353 21.4622 59.9157 21.6938C59.9961 21.9254 60.0194 22.1711 59.9838 22.4123C59.9482 22.6536 59.8546 22.8841 59.7101 23.0865L55.0473 29.6045C54.8579 29.8694 54.7568 30.1811 54.7568 30.5C54.7568 30.8189 54.8579 31.1306 55.0473 31.3955L59.7101 37.9135C59.8546 38.1159 59.9482 38.3464 59.9838 38.5877C60.0194 38.8289 59.9961 39.0746 59.9157 39.3062C59.8353 39.5378 59.6998 39.7492 59.5195 39.9246C59.3392 40.1 59.1187 40.2347 58.8748 40.3185L51.0168 43.0266C50.698 43.1367 50.4212 43.3332 50.2216 43.5909C50.022 43.8486 49.9085 44.1561 49.8955 44.4744L49.5779 52.3169C49.568 52.5604 49.4991 52.7986 49.3765 53.0136C49.254 53.2285 49.0809 53.4145 48.8704 53.5575C48.6599 53.7006 48.4175 53.797 48.1615 53.8394C47.9055 53.8818 47.6425 53.8691 47.3925 53.8023L39.34 51.6627C39.0125 51.5752 38.6646 51.581 38.3406 51.6794C38.0167 51.7777 37.7312 51.9642 37.5207 52.215L32.3516 58.3845C32.191 58.5763 31.986 58.7313 31.7521 58.838C31.5182 58.9446 31.2615 59 31.0014 59C30.7413 59 30.4846 58.9446 30.2507 58.838C30.0168 58.7313 29.8118 58.5763 29.6512 58.3845L24.4765 52.2177C24.2665 51.9669 23.9817 51.7802 23.6583 51.6814C23.3348 51.5826 22.9874 51.5761 22.66 51.6627L14.6075 53.8023C14.3575 53.8691 14.0945 53.8818 13.8385 53.8394C13.5825 53.797 13.3401 53.7006 13.1296 53.5575C12.9191 53.4145 12.746 53.2285 12.6235 53.0136C12.5009 52.7986 12.432 52.5604 12.4221 52.3169L12.1074 44.4744C12.0942 44.1558 11.9803 43.8481 11.7801 43.5903C11.5799 43.3325 11.3026 43.1363 10.9832 43.0266L3.12524 40.3185C2.88129 40.2347 2.66085 40.1 2.48053 39.9246C2.30021 39.7492 2.16473 39.5378 2.0843 39.3062C2.00386 39.0746 1.98058 38.8289 2.01621 38.5877C2.05183 38.3464 2.14543 38.1159 2.28995 37.9135L6.95267 31.3955C7.14207 31.1306 7.24318 30.8189 7.24318 30.5C7.24318 30.1811 7.14207 29.8694 6.95267 29.6045L2.28995 23.0865C2.14543 22.8841 2.05183 22.6536 2.01621 22.4123C1.98058 22.1711 2.00386 21.9254 2.0843 21.6938C2.16473 21.4622 2.30021 21.2508 2.48053 21.0754C2.66085 20.9 2.88129 20.7653 3.12524 20.6815L10.9832 17.9734C11.302 17.8633 11.5788 17.6668 11.7784 17.4091C11.978 17.1514 12.0915 16.8439 12.1045 16.5256L12.4221 8.68308C12.432 8.43957 12.5009 8.20136 12.6235 7.98645C12.746 7.77153 12.9191 7.58552 13.1296 7.44247C13.3401 7.29941 13.5825 7.20304 13.8385 7.16064C14.0945 7.11824 14.3575 7.13091 14.6075 7.1977L22.66 9.3373C22.9874 9.42392 23.3348 9.4174 23.6583 9.31859C23.9817 9.21977 24.2665 9.0331 24.4765 8.78229L29.6541 2.61553H29.6484Z" stroke="#4E4E4E" stroke-width="2.5"/>
</svg>
