<svg width="358" height="89" viewBox="0 0 358 89" fill="none" xmlns="http://www.w3.org/2000/svg">
<path fill-rule="evenodd" clip-rule="evenodd" d="M74.5562 5.31946C87.174 16.9615 82.2907 44.0559 63.6892 65.6356C61.5194 68.1543 59.209 70.5383 56.7699 72.7751H48.8823V13.692H56.2016V11.6635H30.2541C46.5574 -0.738223 64.5771 -3.89035 74.5562 5.31946ZM54.4718 74.8016C37.3897 89.2776 17.6401 93.4877 7.01044 83.6813C-5.60548 72.0393 -0.724058 44.9429 17.8774 23.3632C20.8891 19.8619 24.1757 16.6271 27.7034 13.692H34.9748V72.7731H27.8985V74.8016H54.4718ZM110.2 56.0499H94.8473V54.8249H99.4799V24.4431H94.8473V23.1683H110.2V24.4431H105.592V54.8249H110.2V56.0499ZM126.156 56.0499H114.899V54.9163H118.118V38.0002H114.899V36.8667H117.934C118.535 36.8667 119.287 36.8328 120.179 36.7593C121.07 36.6857 122.029 36.5783 123.049 36.4291V40.858H123.491C124.385 39.3386 125.372 38.211 126.455 37.4971C127.538 36.7831 128.78 36.4291 130.186 36.4291C132.115 36.4291 133.57 36.9064 134.551 37.859C135.531 38.8196 136.021 40.2415 136.021 42.1308V54.9144H138.962V56.0479H128.103V54.9144H130.925V41.218C130.925 40.0347 130.759 39.2293 130.427 38.8275C130.096 38.4159 129.503 38.211 128.657 38.211C127.282 38.211 126.024 38.9747 124.886 40.512C123.76 41.9853 123.155 43.8154 123.171 45.6966V54.9144H126.16V56.0499H126.156ZM146.145 37.9982H143.063V36.8647H146.289V31.5906H147.95C148.321 31.5906 148.755 31.5488 149.262 31.4593C149.76 31.3758 150.338 31.2386 150.985 31.0655V36.8667H155.499V38.0002H150.985V52.148C150.985 53.0688 151.151 53.7172 151.474 54.105C151.798 54.4888 152.328 54.6797 153.072 54.6797C153.625 54.6797 154.14 54.4589 154.622 54.0115C155.097 53.5759 155.468 52.9714 155.728 52.1978L156.637 52.5597C156.377 53.8265 155.705 54.8428 154.622 55.6084C153.539 56.3701 152.234 56.75 150.709 56.75C149.058 56.75 147.887 56.4278 147.192 55.7954C146.497 55.163 146.149 54.0711 146.149 52.51V37.9982H146.145ZM177.535 49.8888H178.673C178.088 52.146 177.068 53.8544 175.614 55.0118C174.167 56.1732 172.309 56.748 170.057 56.748C167.464 56.748 165.298 55.8113 163.566 53.9439C161.827 52.0725 160.958 49.7795 160.958 47.0688C160.958 44.1673 161.844 41.6635 163.622 39.5674C165.392 37.4732 167.542 36.4291 170.057 36.4291C172.531 36.4291 174.578 37.2266 176.214 38.8116C177.851 40.3966 178.673 42.3933 178.673 44.7997V45.2352H166.54V51.1119C166.54 52.4603 166.919 53.5441 167.678 54.3476C168.43 55.159 169.441 55.5627 170.707 55.5627C172.296 55.5627 173.712 55.0536 174.944 54.0294C176.182 52.9992 177.043 51.621 177.535 49.8888ZM173.369 43.865V41.22C173.369 39.987 173.092 39.0761 172.539 38.4914C171.978 37.9087 171.124 37.6124 169.961 37.6124C168.822 37.6124 167.969 37.9167 167.393 38.5173C166.825 39.1159 166.54 40.0208 166.54 41.22V43.865H173.369ZM183.855 56.0499V54.9163H187.074V38.0002H183.855V36.8667H186.89C187.478 36.8667 188.22 36.8328 189.121 36.7593C190.077 36.6814 191.031 36.5713 191.98 36.4291L192.007 41.22H192.376C193.168 39.6171 194.091 38.4179 195.16 37.6224C196.217 36.8273 197.492 36.4087 198.796 36.4291C199.839 36.4291 200.675 36.7175 201.301 37.2843C201.925 37.8511 202.242 38.6247 202.242 39.5852C202.242 40.3986 202.022 41.0629 201.576 41.5561C201.142 42.0572 200.557 42.3038 199.831 42.3038C198.953 42.3038 198.287 42.1149 197.839 41.7291C197.388 41.3433 197.166 40.7765 197.166 40.0208V39.5852C197.179 39.33 197.139 39.0747 197.047 38.8375C197.019 38.7657 196.971 38.7044 196.909 38.6618C196.847 38.6192 196.773 38.5972 196.699 38.5988C195.608 38.5988 194.565 39.3386 193.578 40.8262C192.608 42.2501 192.09 43.9538 192.099 45.6986V54.9163H196.266V56.0499H183.855ZM217.656 56.0499H206.399V54.9163H209.617V38.0002H206.399V36.8667H209.433C210.034 36.8667 210.786 36.8328 211.68 36.7593C212.573 36.6857 213.526 36.5783 214.546 36.4291V40.858H214.99C215.884 39.3386 216.869 38.211 217.954 37.4971C219.039 36.7831 220.279 36.4291 221.684 36.4291C223.613 36.4291 225.071 36.9064 226.049 37.859C227.028 38.8196 227.518 40.2415 227.518 42.1308V54.9144H230.459V56.0479H219.598V54.9144H222.421V41.218C222.421 40.0347 222.256 39.2293 221.923 38.8275C221.59 38.4159 220.997 38.211 220.151 38.211C218.775 38.211 217.52 38.9747 216.38 40.512C215.231 42.0393 214.665 43.7735 214.665 45.6966V54.9144H217.654V56.0499H217.656ZM251.487 49.8888H252.624C252.04 52.146 251.02 53.8544 249.566 55.0118C248.119 56.1732 246.261 56.748 244.009 56.748C241.416 56.748 239.248 55.8113 237.516 53.9439C235.779 52.0725 234.908 49.7795 234.908 47.0688C234.908 44.1673 235.794 41.6635 237.574 39.5674C239.346 37.4732 241.495 36.4291 244.009 36.4291C246.483 36.4291 248.531 37.2266 250.165 38.8116C251.801 40.3966 252.624 42.3933 252.624 44.7997V45.2352H240.488V51.1119C240.488 52.4603 240.869 53.5441 241.629 54.3476C242.381 55.159 243.393 55.5627 244.656 55.5627C246.244 55.5627 247.66 55.0536 248.894 54.0294C250.134 52.9992 250.993 51.621 251.487 49.8888ZM247.319 43.865V41.22C247.319 39.987 247.042 39.0761 246.489 38.4914C245.928 37.9087 245.073 37.6124 243.909 37.6124C242.773 37.6124 241.917 37.9167 241.342 38.5173C240.773 39.1159 240.486 40.0208 240.486 41.22V43.865H247.319ZM273.07 37.9982H270.083V36.8647H273.024C273.64 36.8647 274.4 36.8309 275.307 36.7573C276.208 36.6837 277.165 36.5763 278.185 36.4271V54.8627H281.313V56.0479H278.278C277.49 56.0479 276.675 56.0798 275.82 56.1454C274.976 56.211 274.09 56.3005 273.165 56.4338V52.0566H272.746C271.853 53.576 270.863 54.7016 269.779 55.4155C268.699 56.1295 267.457 56.4835 266.049 56.4835C264.105 56.4835 262.653 56.0141 261.696 55.0774C260.739 54.1328 260.257 52.7188 260.257 50.8235V50.6843C260.225 50.4358 260.209 50.1853 260.209 49.9346V37.9982H257.174V36.8647H260.161C260.756 36.8647 261.499 36.8309 262.4 36.7573C263.301 36.6837 264.266 36.5763 265.286 36.4271V50.5829C265.286 52.1441 265.442 53.22 265.76 53.8226C266.074 54.4212 266.627 54.7234 267.419 54.7234C268.894 54.7234 270.211 53.9697 271.355 52.4662C272.503 50.9508 273.07 49.2027 273.07 47.214V37.9982ZM285.978 56.0499V54.9163H289.193V38.0002H285.978V36.8667H289.013C289.597 36.8667 290.339 36.8328 291.241 36.7593C292.15 36.6857 293.099 36.5783 294.103 36.4291L294.126 41.22H294.499C295.288 39.6171 296.214 38.4179 297.28 37.6224C298.336 36.8278 299.612 36.4093 300.916 36.4291C301.958 36.4291 302.798 36.7175 303.424 37.2843C304.048 37.8511 304.362 38.6247 304.362 39.5852C304.362 40.3986 304.142 41.0629 303.7 41.5561C303.262 42.0572 302.68 42.3038 301.951 42.3038C301.072 42.3038 300.41 42.1149 299.959 41.7291C299.511 41.3433 299.285 40.7765 299.285 40.0208V39.5852C299.285 39.2472 299.247 39.0025 299.168 38.8375C299.141 38.7657 299.092 38.7044 299.03 38.6618C298.968 38.6192 298.895 38.5972 298.82 38.5988C297.729 38.5988 296.687 39.3386 295.695 40.8262C294.728 42.2513 294.212 43.9545 294.22 45.6986V54.9163H298.384V56.0499H285.978ZM314.932 43.5269V49.5965C314.932 51.7443 315.254 53.2796 315.904 54.1925C316.551 55.1053 317.619 55.5627 319.104 55.5627C320.583 55.5627 321.649 55.1053 322.299 54.1925C322.946 53.2796 323.271 51.7463 323.271 49.5965V43.5269C323.271 41.3671 322.946 39.8299 322.299 38.919C321.649 38.0161 320.585 37.5627 319.104 37.5627C317.621 37.5627 316.551 38.0161 315.904 38.919C315.254 39.8299 314.932 41.3671 314.932 43.5269ZM309.325 46.5836C309.325 43.9068 310.305 41.5481 312.259 39.5017C314.211 37.4553 316.486 36.4291 319.102 36.4291C321.71 36.4291 323.987 37.4573 325.941 39.5017C327.892 41.5481 328.874 43.9068 328.874 46.5836C328.874 49.2723 327.891 51.629 325.941 53.6754C323.987 55.7178 321.71 56.748 319.102 56.748C316.486 56.748 314.209 55.7178 312.259 53.6754C310.305 51.629 309.325 49.2704 309.325 46.5836ZM345.197 56.0499H333.939V54.9163H337.158V38.0002H333.939V36.8667H336.974C337.575 36.8667 338.327 36.8328 339.221 36.7593C340.114 36.6857 341.067 36.5783 342.087 36.4291V40.858H342.531C343.425 39.3386 344.41 38.211 345.495 37.4971C346.58 36.7831 347.82 36.4291 349.225 36.4291C351.153 36.4291 352.611 36.9064 353.589 37.859C354.569 38.8196 355.059 40.2415 355.059 42.1308V54.9144H358V56.0479H347.139V54.9144H349.961V41.218C349.961 40.0347 349.797 39.2293 349.464 38.8275C349.131 38.4159 348.538 38.211 347.692 38.211C346.316 38.211 345.061 38.9747 343.92 40.512C342.772 42.0393 342.206 43.7735 342.206 45.6966V54.9144H345.195V56.0499H345.197ZM102.852 74.4914H96.9273V74.026H98.682V62.5093H96.9273V62.028H102.832C104.425 62.028 105.619 62.3124 106.42 62.8832C107.22 63.45 107.618 64.3051 107.618 65.4507C107.618 66.5882 107.211 67.4274 106.394 67.9724C105.578 68.5193 104.314 68.7917 102.607 68.7917H101.001V74.028H102.853V74.4914H102.852ZM101.001 68.3383H102.046C103.167 68.3383 103.952 68.1136 104.396 67.6701C104.842 67.2186 105.064 66.4351 105.064 65.3074C105.064 64.2634 104.884 63.5355 104.528 63.1238C104.17 62.7122 103.489 62.5053 102.475 62.5053H100.999V68.3383H101.001ZM111.508 74.4914V74.0598H112.727V62.4178H111.508V61.9863H112.658C112.886 61.9863 113.171 61.9704 113.512 61.9445C113.858 61.9127 114.216 61.8749 114.597 61.8272V68.7102H114.712C115.316 68.0042 115.787 67.5448 116.131 67.3459C116.472 67.151 116.868 67.0516 117.32 67.0516C118.045 67.0516 118.59 67.2345 118.96 67.5945C119.329 67.9545 119.515 68.4954 119.515 69.2094V74.0559H120.63V74.4874H116.514V74.0559H117.584V68.5789C117.59 68.4618 117.574 68.3445 117.535 68.2344C117.496 68.1242 117.436 68.0236 117.358 67.9386C117.276 67.8581 117.178 67.796 117.072 67.7559C116.966 67.7159 116.853 67.6989 116.74 67.7059C116.22 67.7059 115.741 68.0002 115.303 68.5789C114.863 69.1656 114.645 69.8259 114.645 70.5597V74.0559H115.777V74.4874H111.508V74.4914ZM128.862 70.7307C127.99 70.7427 127.341 70.8938 126.918 71.1782C126.491 71.4626 126.279 71.8961 126.279 72.4709C126.279 72.8905 126.388 73.2166 126.6 73.4493C126.813 73.678 127.115 73.7954 127.502 73.7954C127.69 73.7983 127.877 73.7565 128.047 73.6731C128.218 73.5897 128.367 73.4669 128.485 73.3141C128.749 72.971 128.886 72.5416 128.872 72.1029L128.862 70.7307ZM128.923 73.5408H128.824C128.499 73.9485 128.129 74.2548 127.718 74.4536C127.289 74.6601 126.821 74.7634 126.348 74.7559C125.728 74.7559 125.257 74.5889 124.939 74.2627C124.62 73.9326 124.461 73.4553 124.461 72.8288C124.461 72.1109 124.809 71.5163 125.506 71.0469C126.2 70.5776 127.083 70.3409 128.148 70.3409H128.866V69.1994C128.866 68.4695 128.786 68.0062 128.625 67.8133C128.466 67.6144 128.171 67.5189 127.752 67.5189C127.36 67.5189 127.033 67.5726 126.773 67.678C126.512 67.7874 126.38 67.9067 126.38 68.04C126.38 68.0599 126.43 68.1613 126.533 68.3423C126.634 68.5115 126.688 68.7061 126.69 68.9051C126.694 69.0157 126.676 69.126 126.635 69.2285C126.595 69.3311 126.534 69.4235 126.457 69.4997C126.375 69.5776 126.279 69.638 126.175 69.6772C126.07 69.7165 125.959 69.7339 125.848 69.7284C125.573 69.7284 125.362 69.6548 125.215 69.4997C125.068 69.3485 124.997 69.1338 124.997 68.8554C124.997 68.3502 125.261 67.9226 125.795 67.5766C126.329 67.2306 127.006 67.0556 127.823 67.0556C128.332 67.0556 128.797 67.1013 129.214 67.1948C129.633 67.2922 129.955 67.4155 130.175 67.5746C130.359 67.6934 130.502 67.8704 130.582 68.0798C130.657 68.2786 130.693 68.6784 130.693 69.277V73.4791C130.693 73.5806 130.743 73.678 130.847 73.7635C130.95 73.8491 131.063 73.8908 131.185 73.8908C131.282 73.8818 131.373 73.8438 131.449 73.7814C131.56 73.6957 131.658 73.5939 131.74 73.4791L131.958 73.7238C131.793 74.0418 131.544 74.3046 131.241 74.4815C130.933 74.6658 130.584 74.7613 130.228 74.7579C129.924 74.7708 129.625 74.6659 129.39 74.4636C129.18 74.2587 129.023 73.9564 128.923 73.5408ZM135.741 74.4914V74.0598H136.962V67.6462H135.741V67.2146H136.893C137.115 67.2146 137.397 67.2027 137.737 67.1749C138.082 67.147 138.441 67.1053 138.822 67.0516L138.83 68.8653H138.971C139.272 68.2587 139.622 67.8053 140.026 67.501C140.428 67.1987 140.889 67.0496 141.405 67.0496C141.8 67.0496 142.117 67.159 142.355 67.3718C142.473 67.4806 142.566 67.6155 142.628 67.7664C142.69 67.9174 142.719 68.0808 142.712 68.2448C142.724 68.5181 142.634 68.7855 142.46 68.9906C142.376 69.0855 142.274 69.1601 142.159 69.2092C142.045 69.2584 141.921 69.2808 141.798 69.275C141.465 69.275 141.212 69.2054 141.042 69.0582C140.872 68.911 140.787 68.6963 140.787 68.4099V68.2468C140.793 68.1496 140.777 68.0525 140.741 67.9624C140.715 67.9047 140.671 67.8729 140.611 67.8729C140.198 67.8729 139.802 68.1533 139.427 68.7161C139.061 69.2561 138.865 69.9011 138.868 70.5617V74.0579H140.447V74.4894H135.741V74.4914ZM150.407 74.0598V74.4914H146.327V74.0598H147.527V67.6462H146.327V67.2146H147.475C147.705 67.2146 147.988 67.2027 148.329 67.1749C148.667 67.147 149.029 67.1053 149.415 67.0516V68.7301H149.584C149.898 68.1832 150.265 67.7675 150.682 67.4831C151.101 67.1948 151.549 67.0516 152.022 67.0516C152.506 67.0516 152.927 67.2027 153.277 67.513C153.63 67.8221 153.864 68.2537 153.935 68.7281H154.094C154.365 68.2313 154.742 67.805 155.194 67.4811C155.613 67.1928 156.061 67.0496 156.534 67.0496C157.207 67.0496 157.699 67.2485 158.005 67.6402C158.313 68.032 158.466 68.6624 158.466 69.5315V74.0559H159.45V74.4874H155.606V74.0559H156.561V69.0841C156.561 68.6227 156.505 68.2985 156.394 68.1215C156.283 67.9445 156.099 67.853 155.843 67.853C155.351 67.853 154.911 68.1414 154.521 68.7201C154.133 69.2967 153.929 69.9854 153.937 70.689V74.0559H154.938V74.4874H151.094V74.0559H152.041V69.0841C152.041 68.6028 151.983 68.2806 151.871 68.1096C151.756 67.9346 151.557 67.853 151.27 67.853C150.809 67.853 150.382 68.1414 149.995 68.7241C149.611 69.3007 149.409 69.9875 149.417 70.689V74.0559H150.407V74.0598ZM167.68 70.7307C166.808 70.7427 166.157 70.8938 165.734 71.1782C165.309 71.4626 165.097 71.8961 165.097 72.4709C165.097 72.8905 165.204 73.2166 165.416 73.4493C165.629 73.678 165.933 73.7954 166.32 73.7954C166.508 73.7983 166.695 73.7565 166.865 73.6731C167.035 73.5897 167.185 73.4669 167.303 73.3141C167.566 72.971 167.704 72.5416 167.69 72.1029L167.68 70.7307ZM167.743 73.5408H167.644C167.318 73.9485 166.949 74.2548 166.538 74.4536C166.109 74.6599 165.64 74.7632 165.168 74.7559C164.548 74.7559 164.077 74.5889 163.759 74.2627C163.44 73.9326 163.281 73.4553 163.281 72.8288C163.281 72.1109 163.629 71.5163 164.326 71.0469C165.02 70.5776 165.902 70.3409 166.968 70.3409H167.686V69.1994C167.686 68.4695 167.605 68.0062 167.445 67.8133C167.286 67.6144 166.991 67.5189 166.572 67.5189C166.18 67.5189 165.853 67.5726 165.592 67.678C165.33 67.7874 165.2 67.9067 165.2 68.04C165.2 68.0599 165.25 68.1613 165.353 68.3423C165.454 68.5115 165.508 68.7061 165.51 68.9051C165.514 69.0157 165.495 69.126 165.455 69.2285C165.415 69.3311 165.354 69.4235 165.277 69.4997C165.195 69.5776 165.099 69.638 164.994 69.6772C164.89 69.7165 164.779 69.7339 164.668 69.7284C164.393 69.7284 164.184 69.6548 164.037 69.4997C163.889 69.3485 163.819 69.1338 163.819 68.8554C163.819 68.3502 164.083 67.9226 164.617 67.5766C165.15 67.2306 165.826 67.0556 166.645 67.0556C167.154 67.0556 167.619 67.1013 168.036 67.1948C168.455 67.2922 168.777 67.4155 168.997 67.5746C169.181 67.6934 169.324 67.8704 169.404 68.0798C169.479 68.2786 169.515 68.6784 169.515 69.277V73.4791C169.515 73.5806 169.567 73.678 169.668 73.7635C169.77 73.8491 169.883 73.8908 170.007 73.8908C170.103 73.8818 170.195 73.8438 170.271 73.7814C170.381 73.6957 170.479 73.5939 170.562 73.4791L170.782 73.7238C170.617 74.0418 170.368 74.3046 170.064 74.4815C169.758 74.6644 169.421 74.7579 169.052 74.7579C168.747 74.7708 168.449 74.6659 168.214 74.4636C167.998 74.2587 167.843 73.9564 167.743 73.5408ZM180.899 72.1527H181.337C181.128 73.0038 180.75 73.6522 180.208 74.0957C179.666 74.5352 178.974 74.7559 178.134 74.7559C177.156 74.7559 176.345 74.3979 175.702 73.6919C175.057 72.9859 174.737 72.1029 174.737 71.0509C174.737 69.9054 175.087 68.9528 175.792 68.1911C176.492 67.4334 177.382 67.0536 178.459 67.0536C179.249 67.0536 179.881 67.2365 180.357 67.5925C180.828 67.9505 181.067 68.4278 181.067 69.0343C181.073 69.1656 181.053 69.2966 181.009 69.4198C180.965 69.5431 180.899 69.6561 180.813 69.7523C180.723 69.8454 180.616 69.918 180.498 69.9656C180.38 70.0132 180.254 70.0347 180.128 70.0287C179.864 70.0408 179.607 69.9443 179.412 69.7602C179.323 69.6682 179.253 69.5579 179.207 69.4364C179.161 69.3149 179.139 69.1848 179.144 69.0542C179.144 68.7857 179.219 68.5491 179.376 68.3403C179.463 68.2364 179.541 68.1246 179.609 68.0062C179.609 67.8391 179.513 67.7118 179.324 67.6223C179.07 67.5209 178.799 67.4749 178.528 67.4871C177.931 67.4871 177.5 67.678 177.231 68.0539C176.961 68.4337 176.827 69.0482 176.827 69.8915V72.622C176.827 73.1729 176.965 73.5965 177.24 73.8809C177.518 74.1653 177.919 74.3084 178.461 74.3084C179.012 74.3084 179.519 74.1016 179.98 73.6939C180.436 73.2842 180.746 72.7672 180.899 72.1527ZM191.557 72.1527H191.988C191.768 73.0118 191.379 73.6561 190.83 74.0996C190.281 74.5391 189.579 74.7559 188.721 74.7559C187.738 74.7559 186.917 74.3979 186.262 73.6919C185.6 72.9859 185.271 72.1149 185.271 71.0847C185.271 69.985 185.608 69.0383 186.28 68.2408C186.953 67.4493 187.766 67.0516 188.719 67.0516C189.657 67.0516 190.434 67.3539 191.056 67.9564C191.676 68.555 191.986 69.3128 191.986 70.2256V70.3887H187.386V72.618C187.386 73.1271 187.531 73.5388 187.82 73.8451C188.103 74.1513 188.49 74.3025 188.968 74.3025C189.569 74.3025 190.105 74.1116 190.576 73.7198C191.042 73.334 191.372 72.8089 191.557 72.1527ZM189.977 69.8736V68.8673C189.977 68.4019 189.871 68.0559 189.663 67.8331C189.45 67.6124 189.125 67.499 188.683 67.499C188.253 67.499 187.927 67.6164 187.711 67.8451C187.495 68.0698 187.386 68.4119 187.386 68.8673V69.8736H189.977ZM201.775 67.6482H200.643V67.2166H201.76C201.992 67.2166 202.279 67.2047 202.623 67.1769C202.968 67.149 203.329 67.1073 203.714 67.0536V74.042H204.902V74.4934H203.75C203.448 74.4934 203.142 74.5053 202.816 74.5292C202.481 74.5556 202.146 74.5921 201.812 74.6386V72.98H201.651C201.314 73.5547 200.941 73.9823 200.53 74.2547C200.118 74.5272 199.648 74.6585 199.114 74.6585C198.377 74.6585 197.828 74.4795 197.466 74.1255C197.104 73.7675 196.921 73.2325 196.921 72.5126V72.4589C196.907 72.3648 196.901 72.2697 196.902 72.1745V67.6502H195.75V67.2186H196.883C197.106 67.2186 197.392 67.2067 197.73 67.1788C198.069 67.151 198.436 67.1093 198.825 67.0556V72.4192C198.825 73.0138 198.884 73.4215 199.005 73.6462C199.123 73.8749 199.334 73.9883 199.632 73.9883C200.193 73.9883 200.69 73.7039 201.123 73.1331C201.561 72.5584 201.774 71.8981 201.774 71.1444V67.6482H201.775ZM209.74 67.6482H208.574V67.2166H209.797V65.2199H210.425C210.566 65.2199 210.731 65.204 210.922 65.1702C211.113 65.1384 211.33 65.0847 211.577 65.0191V67.2166H213.289V67.6482H211.577V73.0118C211.577 73.3618 211.64 73.6064 211.764 73.7536C211.887 73.8968 212.086 73.9704 212.369 73.9704C212.588 73.9652 212.797 73.8751 212.956 73.7178C213.15 73.5296 213.295 73.2926 213.375 73.0297L213.72 73.1649C213.673 73.4001 213.581 73.6232 213.45 73.8212C213.32 74.0193 213.152 74.1883 212.958 74.3184C212.518 74.6175 212.001 74.7694 211.475 74.7539C210.847 74.7539 210.405 74.6306 210.141 74.392C209.879 74.1513 209.745 73.7357 209.745 73.145V67.6482H209.74ZM221.691 74.4914H217.107V74.0598H218.486V67.6462H217.317V67.2146H218.454C218.681 67.2146 218.967 67.2027 219.309 67.1749C219.652 67.147 220.011 67.1053 220.392 67.0516L220.4 74.0579H221.693V74.4914H221.691ZM218.259 63.4838C218.256 63.3435 218.281 63.2041 218.331 63.0738C218.381 62.9436 218.456 62.8251 218.551 62.7255C218.646 62.6259 218.76 62.5472 218.885 62.494C219.01 62.4408 219.143 62.4142 219.279 62.4159C219.562 62.4159 219.805 62.5212 220.004 62.7261C220.205 62.9329 220.306 63.1835 220.306 63.4838C220.306 63.7841 220.205 64.0307 220.004 64.2375C219.909 64.3368 219.796 64.4151 219.671 64.4677C219.547 64.5204 219.413 64.5462 219.279 64.5438C219.144 64.5468 219.01 64.5214 218.885 64.4692C218.76 64.417 218.646 64.339 218.551 64.24C218.456 64.1409 218.381 64.0229 218.33 63.8929C218.28 63.763 218.256 63.6238 218.259 63.4838ZM231.581 72.1527H232.019C231.806 73.0038 231.428 73.6522 230.89 74.0957C230.348 74.5352 229.656 74.7559 228.816 74.7559C227.836 74.7559 227.024 74.3979 226.383 73.6919C225.737 72.9859 225.415 72.1029 225.415 71.0509C225.415 69.9054 225.767 68.9528 226.473 68.1911C227.172 67.4334 228.062 67.0536 229.139 67.0536C229.931 67.0536 230.563 67.2365 231.037 67.5925C231.508 67.9505 231.747 68.4278 231.747 69.0343C231.756 69.1656 231.738 69.2975 231.695 69.4211C231.651 69.5447 231.583 69.6572 231.494 69.7513C231.405 69.8453 231.298 69.9187 231.18 69.9665C231.062 70.0143 230.936 70.0355 230.809 70.0287C230.546 70.0407 230.288 69.9443 230.092 69.7602C230.003 69.668 229.934 69.5577 229.888 69.4362C229.842 69.3147 229.821 69.1846 229.826 69.0542C229.826 68.7857 229.901 68.5491 230.054 68.3403C230.211 68.1334 230.289 68.0221 230.289 68.0062C230.289 67.8391 230.191 67.7118 230.006 67.6223C229.752 67.5209 229.481 67.4749 229.21 67.4871C228.613 67.4871 228.182 67.678 227.909 68.0539C227.639 68.4337 227.505 69.0482 227.505 69.8915V72.622C227.505 73.1729 227.643 73.5965 227.92 73.8809C228.197 74.1653 228.599 74.3084 229.139 74.3084C229.692 74.3084 230.197 74.1016 230.66 73.6939C231.113 73.2919 231.435 72.7533 231.581 72.1527ZM240.461 70.7307C239.591 70.7427 238.94 70.8938 238.517 71.1782C238.09 71.4626 237.878 71.8961 237.878 72.4709C237.878 72.8905 237.987 73.2166 238.2 73.4493C238.412 73.678 238.716 73.7954 239.101 73.7954C239.289 73.7983 239.476 73.7565 239.646 73.6731C239.817 73.5897 239.967 73.4669 240.084 73.3141C240.348 72.9712 240.484 72.5415 240.469 72.1029L240.461 70.7307ZM240.524 73.5408H240.423C240.098 73.9485 239.728 74.2548 239.317 74.4536C238.889 74.6605 238.421 74.7639 237.949 74.7559C237.329 74.7559 236.858 74.5889 236.54 74.2627C236.219 73.9326 236.062 73.4553 236.062 72.8288C236.062 72.1109 236.41 71.5163 237.109 71.0469C237.803 70.5776 238.686 70.3409 239.751 70.3409H240.469V69.1994C240.469 68.4695 240.391 68.0062 240.226 67.8133C240.069 67.6144 239.774 67.5189 239.355 67.5189C238.963 67.5189 238.638 67.5726 238.376 67.678C238.113 67.7874 237.983 67.9067 237.983 68.04C237.983 68.0599 238.035 68.1613 238.136 68.3423C238.242 68.5252 238.289 68.7161 238.289 68.9051C238.294 69.0156 238.276 69.126 238.236 69.2286C238.196 69.3312 238.135 69.4236 238.058 69.4997C237.976 69.5778 237.88 69.6383 237.776 69.6775C237.671 69.7168 237.56 69.7341 237.449 69.7284C237.172 69.7284 236.963 69.6548 236.818 69.4997C236.741 69.4132 236.682 69.3116 236.645 69.2008C236.607 69.0901 236.591 68.9726 236.598 68.8554C236.598 68.3502 236.864 67.9226 237.398 67.5766C237.928 67.2306 238.609 67.0556 239.428 67.0556C239.937 67.0556 240.4 67.1013 240.819 67.1948C241.238 67.2922 241.56 67.4155 241.78 67.5746C241.981 67.7138 242.116 67.8809 242.187 68.0798C242.262 68.2786 242.3 68.6784 242.3 69.277V73.4791C242.3 73.5806 242.348 73.678 242.449 73.7635C242.545 73.8457 242.666 73.8907 242.79 73.8908C242.869 73.8908 242.955 73.851 243.056 73.7814C243.166 73.696 243.262 73.5941 243.343 73.4791L243.563 73.7238C243.397 74.0414 243.149 74.304 242.846 74.4815C242.538 74.6661 242.188 74.7616 241.833 74.7579C241.529 74.7706 241.23 74.6658 240.995 74.4636C240.779 74.2587 240.622 73.9564 240.524 73.5408ZM248.429 62.4198H247.05V61.9883H248.391C248.619 61.9883 248.908 61.9724 249.254 61.9465C249.598 61.9147 249.96 61.8769 250.341 61.8292V74.0598H251.634V74.4914H247.05V74.0598H248.429V62.4198ZM255.722 74.5809H255.565V71.8882H256.066C256.175 72.622 256.426 73.2087 256.811 73.6363C256.983 73.8403 257.195 74.0034 257.433 74.1146C257.671 74.2258 257.929 74.2824 258.19 74.2806C258.707 74.2806 259.113 74.1573 259.421 73.9067C259.567 73.7917 259.685 73.6417 259.765 73.4693C259.844 73.2969 259.882 73.1073 259.876 72.9163C259.884 72.772 259.858 72.6279 259.799 72.4965C259.741 72.3652 259.653 72.2505 259.543 72.1626C259.319 71.9995 258.935 71.8742 258.382 71.7967C257.358 71.6575 256.648 71.4009 256.252 71.031C255.852 70.6651 255.655 70.1222 255.655 69.4042C255.655 68.6943 255.859 68.1215 256.275 67.6959C256.686 67.2644 257.239 67.0516 257.938 67.0516C258.232 67.0516 258.517 67.1013 258.781 67.1987C259.046 67.2962 259.331 67.4513 259.622 67.6641L259.947 67.2524H260.182V69.2949H259.771C259.677 68.736 259.465 68.2925 259.135 67.9664C258.819 67.6483 258.395 67.4738 257.955 67.4811C257.473 67.4811 257.107 67.5905 256.849 67.8073C256.59 68.028 256.46 68.3403 256.46 68.748C256.46 69.2054 256.879 69.4937 257.708 69.621C258.077 69.6787 258.366 69.7304 258.586 69.7761C259.304 69.9233 259.83 70.1997 260.155 70.6034C260.481 71.0071 260.649 71.5779 260.649 72.3157C260.649 73.0734 260.433 73.6721 259.998 74.1016C259.564 74.5312 258.971 74.7499 258.207 74.7499C257.863 74.7499 257.545 74.6923 257.266 74.5829C256.967 74.4616 256.689 74.2911 256.443 74.0778L255.722 74.5809ZM265.286 77.5023L265.023 77.1444C265.569 76.6631 265.965 76.2077 266.212 75.7761C266.462 75.3446 266.585 74.8991 266.585 74.4357C266.591 74.2577 266.562 74.0803 266.499 73.9147C266.439 73.7874 266.361 73.7198 266.263 73.7198C266.208 73.7198 266.099 73.8868 265.927 74.217C265.754 74.5511 265.483 74.7141 265.092 74.7141C264.962 74.7191 264.832 74.6955 264.711 74.6448C264.59 74.5941 264.481 74.5174 264.39 74.4198C264.213 74.1982 264.122 73.9159 264.136 73.6283C264.136 73.2127 264.252 72.8746 264.484 72.622C264.602 72.4953 264.745 72.3962 264.903 72.3314C265.061 72.2666 265.231 72.2375 265.4 72.2461C265.643 72.2414 265.883 72.2942 266.102 72.4007C266.322 72.5073 266.515 72.6646 266.667 72.8606C267.008 73.2723 267.176 73.8013 267.176 74.4536C267.176 75.0244 267.012 75.5753 266.686 76.1082C266.322 76.6733 265.844 77.1491 265.286 77.5023ZM281.935 74.4914H276.116V74.026H277.873V62.5093H276.116V62.0261H281.935V62.5093H280.19V74.026H281.935V74.4914ZM290.022 74.4914H285.757V74.0598H286.975V67.6462H285.757V67.2146H286.905C287.132 67.2146 287.417 67.2027 287.756 67.1749C288.095 67.147 288.458 67.1053 288.843 67.0516V68.7301H289.011C289.352 68.1553 289.725 67.7277 290.137 67.4553C290.544 67.1828 291.015 67.0516 291.549 67.0516C292.282 67.0516 292.831 67.2345 293.204 67.5945C293.573 67.9564 293.761 68.4954 293.761 69.2094V74.0559H294.875V74.4874H290.757V74.0559H291.83V68.8633C291.83 68.4158 291.767 68.1096 291.639 67.9584C291.512 67.8033 291.287 67.7258 290.969 67.7258C290.447 67.7258 289.972 68.0161 289.538 68.5968C289.103 69.1795 288.887 69.8358 288.887 70.5617V74.0579H290.02V74.4914H290.022ZM304.942 72.1527H305.38C305.171 73.0038 304.792 73.6522 304.255 74.0957C303.713 74.5352 303.018 74.7559 302.177 74.7559C301.201 74.7559 300.385 74.3979 299.744 73.6919C299.103 72.9859 298.78 72.1029 298.78 71.0509C298.78 69.9054 299.132 68.9528 299.834 68.1911C300.537 67.4334 301.426 67.0536 302.504 67.0536C303.292 67.0536 303.927 67.2365 304.398 67.5925C304.873 67.9505 305.108 68.4278 305.108 69.0343C305.114 69.1656 305.095 69.297 305.051 69.4203C305.008 69.5437 304.94 69.6566 304.854 69.7523C304.764 69.8452 304.658 69.9178 304.54 69.9654C304.422 70.013 304.297 70.0346 304.17 70.0287C303.908 70.0407 303.651 69.9442 303.457 69.7602C303.367 69.6683 303.297 69.5581 303.251 69.4366C303.204 69.3151 303.182 69.1849 303.187 69.0542C303.187 68.7857 303.262 68.5491 303.418 68.3403C303.575 68.1334 303.654 68.0221 303.654 68.0062C303.654 67.8391 303.556 67.7118 303.367 67.6223C303.177 67.5328 302.915 67.4871 302.571 67.4871C301.976 67.4871 301.543 67.678 301.273 68.0539C301.004 68.4337 300.87 69.0482 300.87 69.8915V72.622C300.87 73.1729 301.007 73.5965 301.281 73.8809C301.558 74.1653 301.96 74.3084 302.504 74.3084C303.053 74.3084 303.562 74.1016 304.021 73.6939C304.482 73.2842 304.789 72.7672 304.942 72.1527ZM310.047 73.5209C310.047 73.859 309.93 74.1454 309.699 74.392C309.59 74.508 309.461 74.6002 309.317 74.6631C309.174 74.7259 309.02 74.7582 308.864 74.7579C308.707 74.7615 308.551 74.7311 308.406 74.6688C308.261 74.6065 308.129 74.5136 308.02 74.3959C307.909 74.282 307.822 74.1459 307.763 73.9959C307.703 73.8459 307.674 73.685 307.676 73.5229C307.676 73.1769 307.793 72.8865 308.02 72.6459C308.129 72.5279 308.26 72.4348 308.406 72.3725C308.551 72.3102 308.707 72.28 308.864 72.2839C309.19 72.2839 309.469 72.4052 309.699 72.6498C309.811 72.7622 309.9 72.8977 309.96 73.0475C310.02 73.1974 310.05 73.3586 310.047 73.5209Z" fill="#757575"/>
</svg>
