<svg width="40" height="40" viewBox="0 0 40 40" fill="none" xmlns="http://www.w3.org/2000/svg">
<path d="M16.6668 30C19.6251 29.9994 22.4982 29.009 24.8285 27.1866L32.1552 34.5133L34.5118 32.1566L27.1852 24.83C29.0085 22.4994 29.9995 19.6257 30.0002 16.6666C30.0002 9.31498 24.0185 3.33331 16.6668 3.33331C9.31516 3.33331 3.3335 9.31498 3.3335 16.6666C3.3335 24.0183 9.31516 30 16.6668 30ZM16.6668 6.66665C22.1818 6.66665 26.6668 11.1516 26.6668 16.6666C26.6668 22.1816 22.1818 26.6666 16.6668 26.6666C11.1518 26.6666 6.66683 22.1816 6.66683 16.6666C6.66683 11.1516 11.1518 6.66665 16.6668 6.66665Z" fill="#626262"/>
</svg>
