<svg width="200" height="150" viewBox="0 0 200 150" fill="none" xmlns="http://www.w3.org/2000/svg">
<rect width="200" height="150" fill="white"/>
<g clip-path="url(#clip0_113_74)">
<line x1="15.5" y1="41" x2="15.5" y2="118" stroke="#F4F4F4"/>
<line x1="46.5" y1="42" x2="46.5" y2="118" stroke="#F4F4F4"/>
<line x1="79.5" y1="41" x2="79.5" y2="117" stroke="#F4F4F4"/>
<line x1="113.5" y1="42" x2="113.5" y2="118" stroke="#F4F4F4"/>
<line x1="149.5" y1="41" x2="149.5" y2="118" stroke="#F4F4F4"/>
<line x1="182.5" y1="42" x2="182.5" y2="119" stroke="#F4F4F4"/>
<path d="M27.6992 59H25.9414L22.5195 53.3867V59H20.7617V50.4688H22.5195L25.9473 56.0938V50.4688H27.6992V59ZM32.041 59.1172C31.1113 59.1172 30.3535 58.832 29.7676 58.2617C29.1855 57.6914 28.8945 56.9316 28.8945 55.9824V55.8184C28.8945 55.1816 29.0176 54.6133 29.2637 54.1133C29.5098 53.6094 29.8574 53.2227 30.3066 52.9531C30.7598 52.6797 31.2754 52.543 31.8535 52.543C32.7207 52.543 33.4023 52.8164 33.8984 53.3633C34.3984 53.9102 34.6484 54.6855 34.6484 55.6895V56.3809H30.6113C30.666 56.7949 30.8301 57.127 31.1035 57.377C31.3809 57.627 31.7305 57.752 32.1523 57.752C32.8047 57.752 33.3145 57.5156 33.6816 57.043L34.5137 57.9746C34.2598 58.334 33.916 58.6152 33.4824 58.8184C33.0488 59.0176 32.5684 59.1172 32.041 59.1172ZM31.8477 53.9141C31.5117 53.9141 31.2383 54.0273 31.0273 54.2539C30.8203 54.4805 30.6875 54.8047 30.6289 55.2266H32.9844V55.0918C32.9766 54.7168 32.875 54.4277 32.6797 54.2246C32.4844 54.0176 32.207 53.9141 31.8477 53.9141ZM37.6426 51.1016V52.6602H38.7266V53.9023H37.6426V57.0664C37.6426 57.3008 37.6875 57.4688 37.7773 57.5703C37.8672 57.6719 38.0391 57.7227 38.293 57.7227C38.4805 57.7227 38.6465 57.709 38.791 57.6816V58.9648C38.459 59.0664 38.1172 59.1172 37.7656 59.1172C36.5781 59.1172 35.9727 58.5176 35.9492 57.3184V53.9023H35.0234V52.6602H35.9492V51.1016H37.6426ZM45.1836 56.6973L46.0156 52.6602H47.6504L46.0332 59H44.6152L43.4141 55.0098L42.2129 59H40.8008L39.1836 52.6602H40.8184L41.6445 56.6914L42.8047 52.6602H44.0293L45.1836 56.6973ZM48.2305 55.7715C48.2305 55.1426 48.3516 54.582 48.5938 54.0898C48.8359 53.5977 49.1836 53.2168 49.6367 52.9473C50.0938 52.6777 50.623 52.543 51.2246 52.543C52.0801 52.543 52.7773 52.8047 53.3164 53.3281C53.8594 53.8516 54.1621 54.5625 54.2246 55.4609L54.2363 55.8945C54.2363 56.8672 53.9648 57.6484 53.4219 58.2383C52.8789 58.8242 52.1504 59.1172 51.2363 59.1172C50.3223 59.1172 49.5918 58.8242 49.0449 58.2383C48.502 57.6523 48.2305 56.8555 48.2305 55.8477V55.7715ZM49.9238 55.8945C49.9238 56.4961 50.0371 56.957 50.2637 57.2773C50.4902 57.5938 50.8145 57.752 51.2363 57.752C51.6465 57.752 51.9668 57.5957 52.1973 57.2832C52.4277 56.9668 52.543 56.4629 52.543 55.7715C52.543 55.1816 52.4277 54.7246 52.1973 54.4004C51.9668 54.0762 51.6426 53.9141 51.2246 53.9141C50.8105 53.9141 50.4902 54.0762 50.2637 54.4004C50.0371 54.7207 49.9238 55.2188 49.9238 55.8945ZM58.8418 54.248C58.6113 54.2168 58.4082 54.2012 58.2324 54.2012C57.5918 54.2012 57.1719 54.418 56.9727 54.8516V59H55.2793V52.6602H56.8789L56.9258 53.416C57.2656 52.834 57.7363 52.543 58.3379 52.543C58.5254 52.543 58.7012 52.5684 58.8652 52.6191L58.8418 54.248ZM61.9648 56.457L61.3555 57.0664V59H59.6621V50H61.3555V54.9863L61.6836 54.5645L63.3066 52.6602H65.3398L63.0488 55.3027L65.5391 59H63.5938L61.9648 56.457ZM26.3633 69.8887C26.3633 70.9043 26.1465 71.6973 25.7129 72.2676C25.2793 72.834 24.6738 73.1172 23.8965 73.1172C23.209 73.1172 22.6602 72.8535 22.25 72.3262L22.1738 73H20.6504V64H22.3438V67.2285C22.7344 66.7715 23.248 66.543 23.8848 66.543C24.6582 66.543 25.2637 66.8281 25.7012 67.3984C26.1426 67.9648 26.3633 68.7637 26.3633 69.7949V69.8887ZM24.6699 69.7656C24.6699 69.125 24.5684 68.6582 24.3652 68.3652C24.1621 68.0684 23.8594 67.9199 23.457 67.9199C22.918 67.9199 22.5469 68.1406 22.3438 68.582V71.084C22.5508 71.5293 22.9258 71.752 23.4688 71.752C24.0156 71.752 24.375 71.4824 24.5469 70.9434C24.6289 70.6855 24.6699 70.293 24.6699 69.7656ZM27.1484 69.7715C27.1484 69.1426 27.2695 68.582 27.5117 68.0898C27.7539 67.5977 28.1016 67.2168 28.5547 66.9473C29.0117 66.6777 29.541 66.543 30.1426 66.543C30.998 66.543 31.6953 66.8047 32.2344 67.3281C32.7773 67.8516 33.0801 68.5625 33.1426 69.4609L33.1543 69.8945C33.1543 70.8672 32.8828 71.6484 32.3398 72.2383C31.7969 72.8242 31.0684 73.1172 30.1543 73.1172C29.2402 73.1172 28.5098 72.8242 27.9629 72.2383C27.4199 71.6523 27.1484 70.8555 27.1484 69.8477V69.7715ZM28.8418 69.8945C28.8418 70.4961 28.9551 70.957 29.1816 71.2773C29.4082 71.5938 29.7324 71.752 30.1543 71.752C30.5645 71.752 30.8848 71.5957 31.1152 71.2832C31.3457 70.9668 31.4609 70.4629 31.4609 69.7715C31.4609 69.1816 31.3457 68.7246 31.1152 68.4004C30.8848 68.0762 30.5605 67.9141 30.1426 67.9141C29.7285 67.9141 29.4082 68.0762 29.1816 68.4004C28.9551 68.7207 28.8418 69.2188 28.8418 69.8945ZM33.9336 69.7715C33.9336 69.1426 34.0547 68.582 34.2969 68.0898C34.5391 67.5977 34.8867 67.2168 35.3398 66.9473C35.7969 66.6777 36.3262 66.543 36.9277 66.543C37.7832 66.543 38.4805 66.8047 39.0195 67.3281C39.5625 67.8516 39.8652 68.5625 39.9277 69.4609L39.9395 69.8945C39.9395 70.8672 39.668 71.6484 39.125 72.2383C38.582 72.8242 37.8535 73.1172 36.9395 73.1172C36.0254 73.1172 35.2949 72.8242 34.748 72.2383C34.2051 71.6523 33.9336 70.8555 33.9336 69.8477V69.7715ZM35.627 69.8945C35.627 70.4961 35.7402 70.957 35.9668 71.2773C36.1934 71.5938 36.5176 71.752 36.9395 71.752C37.3496 71.752 37.6699 71.5957 37.9004 71.2832C38.1309 70.9668 38.2461 70.4629 38.2461 69.7715C38.2461 69.1816 38.1309 68.7246 37.9004 68.4004C37.6699 68.0762 37.3457 67.9141 36.9277 67.9141C36.5137 67.9141 36.1934 68.0762 35.9668 68.4004C35.7402 68.7207 35.627 69.2188 35.627 69.8945ZM44.416 71.248C44.416 71.041 44.3125 70.8789 44.1055 70.7617C43.9023 70.6406 43.5742 70.5332 43.1211 70.4395C41.6133 70.123 40.8594 69.4824 40.8594 68.5176C40.8594 67.9551 41.0918 67.4863 41.5566 67.1113C42.0254 66.7324 42.6367 66.543 43.3906 66.543C44.1953 66.543 44.8379 66.7324 45.3184 67.1113C45.8027 67.4902 46.0449 67.9824 46.0449 68.5879H44.3516C44.3516 68.3457 44.2734 68.1465 44.1172 67.9902C43.9609 67.8301 43.7168 67.75 43.3848 67.75C43.0996 67.75 42.8789 67.8145 42.7227 67.9434C42.5664 68.0723 42.4883 68.2363 42.4883 68.4355C42.4883 68.623 42.5762 68.7754 42.752 68.8926C42.9316 69.0059 43.2324 69.1055 43.6543 69.1914C44.0762 69.2734 44.4316 69.3672 44.7207 69.4727C45.6152 69.8008 46.0625 70.3691 46.0625 71.1777C46.0625 71.7559 45.8145 72.2246 45.3184 72.584C44.8223 72.9395 44.1816 73.1172 43.3965 73.1172C42.8652 73.1172 42.3926 73.0234 41.9785 72.8359C41.5684 72.6445 41.2461 72.3848 41.0117 72.0566C40.7773 71.7246 40.6602 71.3672 40.6602 70.9844H42.2656C42.2812 71.2852 42.3926 71.5156 42.5996 71.6758C42.8066 71.8359 43.084 71.916 43.4316 71.916C43.7559 71.916 44 71.8555 44.1641 71.7344C44.332 71.6094 44.416 71.4473 44.416 71.248ZM49.1855 65.1016V66.6602H50.2695V67.9023H49.1855V71.0664C49.1855 71.3008 49.2305 71.4688 49.3203 71.5703C49.4102 71.6719 49.582 71.7227 49.8359 71.7227C50.0234 71.7227 50.1895 71.709 50.334 71.6816V72.9648C50.002 73.0664 49.6602 73.1172 49.3086 73.1172C48.1211 73.1172 47.5156 72.5176 47.4922 71.3184V67.9023H46.5664V66.6602H47.4922V65.1016H49.1855Z" fill="#505050"/>
<path d="M109.529 75.7344L110.625 78.8281L111.715 75.7344H112.869V80H111.987V78.834L112.075 76.8213L110.924 80H110.32L109.172 76.8242L109.26 78.834V80H108.381V75.7344H109.529ZM116.098 79.1211H114.557L114.264 80H113.329L114.917 75.7344H115.731L117.328 80H116.394L116.098 79.1211ZM114.794 78.4092H115.86L115.324 76.8125L114.794 78.4092ZM118.758 77.6562L119.646 75.7344H120.606L119.206 78.4531V80H118.312V78.4531L116.912 75.7344H117.876L118.758 77.6562Z" fill="#9B9999"/>
<path d="M106.97 54.77C107.103 54.77 107.21 54.8133 107.29 54.9C107.377 54.98 107.42 55.0867 107.42 55.22C107.42 55.3467 107.377 55.45 107.29 55.53C107.21 55.61 107.103 55.65 106.97 55.65H105.43V57.18C105.43 57.3267 105.383 57.45 105.29 57.55C105.197 57.6433 105.073 57.69 104.92 57.69C104.773 57.69 104.65 57.6433 104.55 57.55C104.457 57.45 104.41 57.3267 104.41 57.18V55.65H102.88C102.753 55.65 102.647 55.6067 102.56 55.52C102.473 55.4333 102.43 55.3267 102.43 55.2C102.43 55.0733 102.47 54.97 102.55 54.89C102.637 54.81 102.747 54.77 102.88 54.77H104.41V53.14C104.41 52.9933 104.457 52.8733 104.55 52.78C104.65 52.6867 104.773 52.64 104.92 52.64C105.073 52.64 105.197 52.6867 105.29 52.78C105.383 52.8733 105.43 52.9933 105.43 53.14V54.77H106.97ZM110.463 53.57C110.843 53.57 111.183 53.6667 111.483 53.86C111.79 54.0467 112.03 54.3033 112.203 54.63C112.376 54.9567 112.463 55.3233 112.463 55.73C112.463 56.2033 112.353 56.62 112.133 56.98C111.913 57.34 111.61 57.6167 111.223 57.81C110.836 58.0033 110.393 58.1 109.893 58.1C109.626 58.1 109.366 58.0633 109.113 57.99C108.866 57.9167 108.653 57.81 108.473 57.67C108.293 57.57 108.203 57.4333 108.203 57.26C108.203 57.1333 108.246 57.0167 108.333 56.91C108.426 56.8033 108.536 56.75 108.663 56.75C108.783 56.75 108.903 56.7933 109.023 56.88C109.296 57.1333 109.64 57.26 110.053 57.26C110.313 57.26 110.553 57.2 110.773 57.08C111 56.96 111.18 56.79 111.313 56.57C111.446 56.3433 111.513 56.0833 111.513 55.79C111.513 55.3567 111.38 55.0233 111.113 54.79C110.846 54.5567 110.526 54.44 110.153 54.44C110.046 54.44 109.893 54.4633 109.693 54.51C109.546 54.55 109.436 54.57 109.363 54.57C109.243 54.57 109.146 54.53 109.073 54.45C109 54.3633 108.963 54.2567 108.963 54.13C108.963 54.0567 108.976 53.9933 109.003 53.94C109.03 53.8867 109.073 53.8233 109.133 53.75L110.833 51.88H108.523C108.396 51.88 108.29 51.8367 108.203 51.75C108.116 51.6633 108.073 51.5567 108.073 51.43C108.073 51.3033 108.116 51.2 108.203 51.12C108.29 51.04 108.396 51 108.523 51H111.713C111.866 51 111.986 51.0467 112.073 51.14C112.16 51.2333 112.203 51.3467 112.203 51.48C112.203 51.6 112.14 51.7233 112.013 51.85L110.463 53.57ZM115.588 53.32C116.021 53.32 116.414 53.42 116.768 53.62C117.121 53.8133 117.398 54.0867 117.598 54.44C117.798 54.7867 117.898 55.1767 117.898 55.61C117.898 56.07 117.778 56.4867 117.538 56.86C117.304 57.2333 116.981 57.53 116.568 57.75C116.161 57.9633 115.714 58.07 115.228 58.07C114.954 58.07 114.681 58.0267 114.408 57.94C114.134 57.8533 113.904 57.7333 113.718 57.58C113.651 57.5267 113.598 57.4567 113.558 57.37C113.518 57.2833 113.498 57.1967 113.498 57.11C113.498 57.01 113.538 56.92 113.618 56.84C113.704 56.7533 113.814 56.71 113.948 56.71C114.034 56.71 114.151 56.76 114.298 56.86C114.598 57.08 114.904 57.19 115.218 57.19C115.538 57.19 115.828 57.12 116.088 56.98C116.354 56.84 116.564 56.65 116.718 56.41C116.871 56.17 116.948 55.9067 116.948 55.62C116.948 55.1933 116.808 54.85 116.528 54.59C116.248 54.33 115.894 54.2 115.468 54.2C115.288 54.2 115.128 54.2233 114.988 54.27C114.854 54.3167 114.691 54.3867 114.498 54.48C114.418 54.52 114.338 54.5567 114.258 54.59C114.184 54.6167 114.121 54.63 114.068 54.63C113.874 54.63 113.731 54.5733 113.638 54.46C113.544 54.3467 113.498 54.2167 113.498 54.07L113.508 53.97L113.868 51.38C113.888 51.2733 113.941 51.1833 114.028 51.11C114.121 51.0367 114.231 51 114.358 51H117.298C117.424 51 117.528 51.0433 117.608 51.13C117.694 51.2167 117.738 51.3233 117.738 51.45C117.738 51.5767 117.694 51.6833 117.608 51.77C117.528 51.85 117.424 51.89 117.298 51.89H114.688L114.428 53.6C114.574 53.52 114.751 53.4533 114.958 53.4C115.171 53.3467 115.381 53.32 115.588 53.32ZM120.492 54.71C120.185 54.71 119.915 54.6267 119.682 54.46C119.455 54.2933 119.278 54.0667 119.152 53.78C119.025 53.4867 118.962 53.1667 118.962 52.82C118.962 52.4667 119.025 52.1467 119.152 51.86C119.278 51.5667 119.455 51.3367 119.682 51.17C119.915 50.9967 120.185 50.91 120.492 50.91C120.952 50.91 121.318 51.0933 121.592 51.46C121.872 51.82 122.012 52.27 122.012 52.81C122.012 53.1567 121.945 53.4767 121.812 53.77C121.685 54.0567 121.505 54.2867 121.272 54.46C121.045 54.6267 120.785 54.71 120.492 54.71ZM120.512 58.02C120.412 58.02 120.315 57.9833 120.222 57.91C120.135 57.8367 120.092 57.7433 120.092 57.63C120.092 57.55 120.118 57.4667 120.172 57.38L124.272 51.17C124.365 51.0433 124.478 50.98 124.612 50.98C124.712 50.98 124.805 51.0167 124.892 51.09C124.985 51.1633 125.032 51.2567 125.032 51.37C125.032 51.43 125.005 51.5133 124.952 51.62L120.842 57.83C120.748 57.9567 120.638 58.02 120.512 58.02ZM120.492 53.97C120.718 53.97 120.892 53.8633 121.012 53.65C121.138 53.4367 121.202 53.16 121.202 52.82C121.202 52.4733 121.138 52.1933 121.012 51.98C120.892 51.7667 120.718 51.66 120.492 51.66C120.265 51.66 120.088 51.7667 119.962 51.98C119.842 52.1933 119.782 52.47 119.782 52.81C119.782 53.1567 119.842 53.4367 119.962 53.65C120.088 53.8633 120.265 53.97 120.492 53.97ZM124.712 58.09C124.418 58.09 124.155 58.0067 123.922 57.84C123.688 57.6733 123.505 57.4467 123.372 57.16C123.245 56.8733 123.182 56.5567 123.182 56.21C123.182 55.8567 123.245 55.5367 123.372 55.25C123.498 54.9567 123.675 54.7267 123.902 54.56C124.135 54.3867 124.405 54.3 124.712 54.3C125.018 54.3 125.285 54.3867 125.512 54.56C125.745 54.7267 125.922 54.9533 126.042 55.24C126.168 55.5267 126.232 55.8467 126.232 56.2C126.232 56.5467 126.165 56.8633 126.032 57.15C125.905 57.4367 125.725 57.6667 125.492 57.84C125.265 58.0067 125.005 58.09 124.712 58.09ZM124.712 57.36C124.938 57.36 125.112 57.2533 125.232 57.04C125.352 56.8267 125.412 56.55 125.412 56.21C125.412 55.8633 125.348 55.5833 125.222 55.37C125.102 55.15 124.932 55.04 124.712 55.04C124.485 55.04 124.308 55.15 124.182 55.37C124.062 55.5833 124.002 55.86 124.002 56.2C124.002 56.5467 124.062 56.8267 124.182 57.04C124.308 57.2533 124.485 57.36 124.712 57.36Z" fill="#656565"/>
<path d="M16.5 118.5C16.5 118.5 23.4107 108.686 30 105.5C45.7677 97.8767 54.01 123.414 71.5 122.5C101.237 120.946 91.2937 66.5652 121 64.5C135.181 63.5141 142.008 77.0102 156 74.5C172.871 71.4732 188.5 45 188.5 45" stroke="#624A77" stroke-width="2"/>
<circle cx="113" cy="67" r="4" fill="white" stroke="#664087" stroke-width="2"/>
</g>
<rect x="14" y="8" width="105" height="18" rx="9" fill="#EDEBF0"/>
<path d="M36.2539 17.9746H34.4561L34.1143 19H33.0239L34.8765 14.0234H35.8267L37.6895 19H36.5991L36.2539 17.9746ZM34.7329 17.144H35.9771L35.3516 15.2812L34.7329 17.144ZM39.9016 17.7661L41.0295 14.0234H42.1711L40.4382 19H39.3684L37.6423 14.0234H38.7805L39.9016 17.7661ZM45.8119 16.8433H43.8432V18.1763H46.1537V19H42.8178V14.0234H46.1469V14.854H43.8432V16.04H45.8119V16.8433ZM48.7726 17.1782H47.9557V19H46.9303V14.0234H48.7794C49.3673 14.0234 49.8207 14.1545 50.1397 14.4165C50.4588 14.6785 50.6183 15.0488 50.6183 15.5273C50.6183 15.8669 50.5442 16.1506 50.3961 16.3784C50.2503 16.604 50.0281 16.784 49.7296 16.9185L50.8062 18.9521V19H49.7057L48.7726 17.1782ZM47.9557 16.3477H48.7828C49.0403 16.3477 49.2397 16.2827 49.381 16.1528C49.5222 16.0207 49.5929 15.8395 49.5929 15.6094C49.5929 15.3747 49.5257 15.1901 49.3912 15.0557C49.259 14.9212 49.0551 14.854 48.7794 14.854H47.9557V16.3477ZM54.3855 17.9746H52.5877L52.2459 19H51.1556L53.0081 14.0234H53.9583L55.8211 19H54.7308L54.3855 17.9746ZM52.8646 17.144H54.1087L53.4832 15.2812L52.8646 17.144ZM60.3232 18.3711C60.1387 18.5921 59.8778 18.7642 59.5405 18.8872C59.2033 19.008 58.8296 19.0684 58.4194 19.0684C57.9888 19.0684 57.6105 18.9749 57.2847 18.7881C56.9611 18.599 56.7104 18.3255 56.5327 17.9678C56.3573 17.61 56.2673 17.1896 56.2627 16.7065V16.3682C56.2627 15.8714 56.3459 15.4419 56.5122 15.0796C56.6808 14.715 56.9224 14.437 57.2368 14.2456C57.5535 14.0519 57.9238 13.9551 58.3477 13.9551C58.9378 13.9551 59.3993 14.0964 59.7319 14.3789C60.0646 14.6592 60.2617 15.0682 60.3232 15.606H59.3252C59.2796 15.3211 59.1782 15.1126 59.021 14.9805C58.866 14.8483 58.6519 14.7822 58.3784 14.7822C58.0298 14.7822 57.7643 14.9132 57.582 15.1753C57.3997 15.4373 57.3075 15.827 57.3052 16.3442V16.6621C57.3052 17.1839 57.4043 17.5781 57.6025 17.8447C57.8008 18.1113 58.0913 18.2446 58.4741 18.2446C58.8592 18.2446 59.1338 18.1626 59.2979 17.9985V17.1406H58.3647V16.3853H60.3232V18.3711ZM64.3264 16.8433H62.3576V18.1763H64.6682V19H61.3322V14.0234H64.6613V14.854H62.3576V16.04H64.3264V16.8433ZM67.3629 19V14.0234H68.8941C69.3316 14.0234 69.7224 14.1226 70.0665 14.3208C70.4129 14.5168 70.6829 14.797 70.8766 15.1616C71.0702 15.5239 71.1671 15.9364 71.1671 16.3989V16.6279C71.1671 17.0905 71.0714 17.5018 70.88 17.8618C70.6909 18.2218 70.4231 18.501 70.0768 18.6992C69.7304 18.8975 69.3396 18.9977 68.9044 19H67.3629ZM68.3883 14.854V18.1763H68.8839C69.2849 18.1763 69.5914 18.0452 69.8033 17.7832C70.0152 17.5212 70.1235 17.1463 70.128 16.6587V16.3955C70.128 15.8896 70.0232 15.5068 69.8136 15.2471C69.6039 14.985 69.2975 14.854 68.8941 14.854H68.3883ZM73.6561 16.2656L74.6917 14.0234H75.8128L74.179 17.1953V19H73.1365V17.1953L71.5027 14.0234H72.6272L73.6561 16.2656ZM80.4893 19H79.4639L77.4678 15.7256V19H76.4424V14.0234H77.4678L79.4673 17.3047V14.0234H80.4893V19ZM84.4309 17.9746H82.633L82.2912 19H81.2009L83.0534 14.0234H84.0036L85.8664 19H84.7761L84.4309 17.9746ZM82.9099 17.144H84.154L83.5285 15.2812L82.9099 17.144ZM87.8461 14.0234L89.1244 17.6328L90.3959 14.0234H91.7426V19H90.7138V17.6396L90.8163 15.2915L89.473 19H88.7689L87.4291 15.2949L87.5316 17.6396V19H86.5062V14.0234H87.8461ZM93.9034 19H92.878V14.0234H93.9034V19ZM98.9388 17.3423C98.9 17.8778 98.7018 18.2993 98.344 18.6069C97.9886 18.9146 97.5192 19.0684 96.9358 19.0684C96.2978 19.0684 95.7954 18.8542 95.4285 18.4258C95.0639 17.9951 94.8816 17.4049 94.8816 16.6553V16.3511C94.8816 15.8726 94.966 15.451 95.1346 15.0864C95.3032 14.7218 95.5436 14.4427 95.8558 14.249C96.1702 14.0531 96.5348 13.9551 96.9495 13.9551C97.5237 13.9551 97.9863 14.1089 98.3372 14.4165C98.6881 14.7241 98.8909 15.1559 98.9456 15.7119H97.9202C97.8952 15.3906 97.8051 15.1582 97.6502 15.0146C97.4975 14.8688 97.264 14.7959 96.9495 14.7959C96.6077 14.7959 96.3514 14.9189 96.1805 15.165C96.0118 15.4089 95.9253 15.7882 95.9207 16.3032V16.6792C95.9207 17.217 96.0016 17.61 96.1634 17.8584C96.3274 18.1068 96.5849 18.231 96.9358 18.231C97.2526 18.231 97.4884 18.1592 97.6434 18.0156C97.8006 17.8698 97.8906 17.6453 97.9134 17.3423H98.9388Z" fill="#54396B"/>
<circle cx="26" cy="17" r="2" fill="#482C61"/>
<defs>
<clipPath id="clip0_113_74">
<rect width="173" height="87" fill="white" transform="translate(15 41)"/>
</clipPath>
</defs>
</svg>
