<svg width="365" height="73" viewBox="0 0 365 73" fill="none" xmlns="http://www.w3.org/2000/svg">
<g clip-path="url(#clip0_113_25)">
<path d="M25.3099 0.470021C22.4985 -0.0999518 19.6013 -0.0999518 16.7899 0.470021C11.9893 1.31082 7.65148 3.85064 4.5688 7.62549C1.48613 11.4003 -0.135594 16.1583 -9.72701e-05 21.03V53.73C-0.0721185 54.7786 0.124044 55.8282 0.569902 56.78L0.619905 56.83C0.8632 57.2736 1.19443 57.6629 1.59333 57.9741C1.99224 58.2854 2.45044 58.5119 2.93991 58.64C3.4514 58.7679 3.98458 58.7832 4.50257 58.6848C5.02055 58.5864 5.51097 58.3766 5.93991 58.07C7.64991 56.94 7.8499 54.97 7.8499 53.58V40.4H34.2999V53.67C34.2894 54.7471 34.5398 55.8108 35.0299 56.77C35.2732 57.2136 35.6044 57.6029 36.0033 57.9141C36.4022 58.2254 36.8604 58.4519 37.3499 58.58C37.6395 58.6408 37.9341 58.6743 38.2299 58.68C38.9916 58.6998 39.7379 58.4639 40.3499 58.01C41.8999 57.01 42.1099 55.27 42.1099 53.52V20.98C42.0499 10.54 35.4999 2.54002 25.3099 0.470021ZM34.2499 21.08V33.08H7.8999V21.08C7.8999 15.92 9.70991 12.3 13.6899 9.72002C15.1537 8.73525 16.7986 8.0513 18.5291 7.70795C20.2596 7.3646 22.041 7.36871 23.7699 7.72002C25.4517 8.01478 27.0409 8.69978 28.4099 9.72002H28.4699C32.3899 12.4 34.2499 15.97 34.2499 21.08Z" fill="#626262"/>
<path d="M120.32 40.87C120.101 40.4309 119.796 40.0402 119.423 39.7207C119.05 39.4013 118.618 39.1596 118.15 39.01C117.167 38.7257 116.112 38.8369 115.21 39.32C114.576 39.6778 114.038 40.1841 113.643 40.7954C113.247 41.4068 113.006 42.1049 112.94 42.83L112.63 44.49L112.57 45C111.39 50.12 107.25 52.91 101.98 52.13C98.5701 51.62 94.0301 49.81 94.0301 40.41V39.79H104.36C105.6 39.79 109.36 39.79 109.36 36.07C109.381 35.2089 109.08 34.3709 108.516 33.72C107.952 33.069 107.165 32.6518 106.31 32.55C105.573 32.4666 104.832 32.4332 104.09 32.45H94.0301V18.14C94.0948 17.0919 93.899 16.044 93.4601 15.09V15.04C93.2148 14.5961 92.8817 14.2067 92.4812 13.8955C92.0806 13.5844 91.6209 13.3579 91.1301 13.23C90.6187 13.1014 90.0854 13.0858 89.5673 13.1842C89.0492 13.2826 88.5588 13.4928 88.1301 13.8C86.5801 14.8 86.3701 16.54 86.3701 18.29V39.63C86.3701 51.77 90.7601 57.87 100.63 59.47C101.755 59.6772 102.896 59.781 104.04 59.78C107.766 59.8465 111.406 58.6534 114.369 56.3939C117.333 54.1344 119.447 50.9407 120.37 47.33C120.52 46.71 120.62 46.14 120.73 45.57V45.52C121.05 43.3 120.94 42.06 120.32 40.87Z" fill="#626262"/>
<path d="M170.8 30.69C167.5 18.4 154.89 11.22 142.07 14.4C138.912 15.1133 135.941 16.4873 133.352 18.4315C130.763 20.3758 128.615 22.8462 127.05 25.6802C125.485 28.5142 124.537 31.6475 124.27 34.8741C124.003 38.1006 124.422 41.3471 125.5 44.4C128.6 53.96 137.43 59.95 147.5 59.95C149.377 59.9487 151.248 59.7408 153.08 59.33C155.965 58.6874 158.712 57.5324 161.19 55.92C162.763 54.9188 164.19 53.7039 165.43 52.31C166.72 50.76 167.49 49.52 167.34 48.07C167.282 47.5846 167.128 47.1156 166.888 46.6899C166.648 46.2642 166.325 45.8904 165.94 45.59C165.532 45.2811 165.064 45.0617 164.566 44.9463C164.068 44.8308 163.552 44.8219 163.05 44.92L162.89 44.97C161.994 45.2054 161.172 45.6628 160.5 46.3L159.83 47.12L158.83 48H158.78C156.707 50.1363 154.049 51.6116 151.14 52.24C147.465 53.1052 143.602 52.6016 140.272 50.8235C136.942 49.0454 134.375 46.1147 133.05 42.58C132.85 41.96 132.69 41.39 132.54 40.87H166.33L167.05 40.77H168.19C168.735 40.7566 169.269 40.619 169.753 40.3677C170.236 40.1164 170.656 39.7581 170.98 39.32C172.14 37.72 172.09 35.34 170.8 30.69ZM132.98 31.98C133.57 30.0106 134.546 28.1778 135.849 26.5878C137.153 24.9978 138.758 23.682 140.574 22.7167C142.389 21.7513 144.378 21.1556 146.425 20.9639C148.472 20.7722 150.537 20.9884 152.5 21.6C155.129 22.3807 157.509 23.835 159.404 25.8188C161.298 27.8027 162.641 30.2472 163.3 32.91C163.4 33.33 163.5 33.74 163.56 34.15L132.5 33.9C132.613 33.2492 132.774 32.6076 132.98 31.98Z" fill="#626262"/>
<path d="M210.63 27.33C210.48 26.66 210.27 26.09 210.11 25.58L209.96 25.11C207.27 17.67 201.07 13.28 193.43 13.33C192.197 13.3162 190.966 13.4403 189.76 13.7C183.66 15.04 176.43 19.43 176.43 32.7V53.7C176.403 54.7777 176.651 55.8445 177.15 56.8C177.397 57.2428 177.73 57.6314 178.131 57.9424C178.531 58.2534 178.99 58.4804 179.48 58.61C179.77 58.6708 180.064 58.7043 180.36 58.71C181.119 58.7283 181.861 58.4925 182.47 58.04C184.08 56.96 184.08 55.1 184.08 53.55V32.71C184.08 25.71 186.3 22.27 191.46 21.24C193.081 20.8397 194.781 20.8979 196.37 21.4083C197.96 21.9187 199.376 22.861 200.46 24.13C201.35 25.1242 202.003 26.3072 202.37 27.59C203.15 31.31 203.56 32.45 204.08 33.17L204.23 33.38C204.834 34.0197 205.63 34.4464 206.497 34.5961C207.364 34.7457 208.257 34.6102 209.04 34.21C211.41 32.91 211.15 29.87 210.63 27.33Z" fill="#626262"/>
<path d="M255.58 7.13001C253.654 4.83776 251.238 3.00711 248.51 1.77308C245.783 0.539043 242.813 -0.0668752 239.82 1.93939e-05C228.2 0.160019 220.34 8.58002 220.34 21V53.7C220.31 54.7792 220.562 55.8475 221.07 56.8C221.313 57.2436 221.644 57.6329 222.043 57.9441C222.442 58.2554 222.9 58.4819 223.39 58.61C223.679 58.6708 223.974 58.7043 224.27 58.71C225.031 58.7283 225.777 58.4926 226.39 58.04C227.99 56.96 228.2 55.15 228.2 53.55V38.7H239.5C250.19 38.7 257.5 33.12 259.5 23.41C260.106 20.576 260.068 17.6421 259.39 14.8245C258.711 12.007 257.409 9.37752 255.58 7.13001ZM251.96 19.53C251.81 26.53 246.69 31.31 239.46 31.31H239.3L228.3 31.16V20.31C228.3 15.45 229.02 13.18 231.35 10.8C232.491 9.62912 233.869 8.71493 235.392 8.11832C236.914 7.52171 238.547 7.25638 240.18 7.34002C247.16 7.50002 252.01 12.51 251.96 19.53Z" fill="#626262"/>
<path d="M308.58 34.4C308.511 32.7062 308.236 31.0271 307.76 29.4C306.949 26.6221 305.595 24.0324 303.778 21.7805C301.96 19.5286 299.714 17.6592 297.17 16.28C294.373 14.7585 291.302 13.8087 288.134 13.4859C284.967 13.1631 281.766 13.4739 278.72 14.4C274.711 15.5589 271.093 17.7868 268.253 20.8449C265.414 23.9031 263.459 27.6762 262.6 31.76C260.07 44.26 267.1 55.94 278.93 58.98C281.072 59.536 283.277 59.815 285.49 59.81C288.729 59.8127 291.933 59.1312 294.89 57.81C297.198 56.7902 299.286 55.3334 301.04 53.52V53.62C300.932 54.6548 301.073 55.7004 301.45 56.67L301.51 56.72C301.753 57.1636 302.085 57.5529 302.484 57.8641C302.883 58.1754 303.341 58.4019 303.83 58.53C304.342 58.6573 304.875 58.6722 305.393 58.5738C305.911 58.4754 306.401 58.266 306.83 57.96C308.43 56.88 308.69 55.07 308.69 53.47V35.29L308.58 34.4ZM289.16 52.02C280.63 54.02 272.73 49.33 270.46 40.96C270.124 39.9054 269.916 38.8143 269.84 37.71C269.56 34.186 270.479 30.6706 272.449 27.7351C274.418 24.7995 277.323 22.6162 280.69 21.54C282.308 21.0278 283.994 20.7648 285.69 20.76C288.869 20.7392 291.974 21.7149 294.57 23.55C296.556 24.9693 298.179 26.8357 299.31 28.9984C300.441 31.1612 301.047 33.5597 301.08 36C301.4 43.87 296.65 50.32 289.16 52.03V52.02Z" fill="#626262"/>
<path d="M349.6 16.54L348 17.31L349.6 16.54L349.55 16.43C349.306 15.9879 348.974 15.6002 348.575 15.2907C348.177 14.9812 347.719 14.7564 347.23 14.63C346.719 14.5006 346.186 14.4837 345.668 14.5804C345.15 14.6771 344.66 14.8851 344.23 15.19C342.68 16.19 342.53 17.98 342.53 19.69V40.51C342.53 44.59 341.29 47.9 339.07 49.86C338.018 50.7308 336.788 51.361 335.466 51.7065C334.145 52.052 332.764 52.1044 331.42 51.86C326.15 51.14 323.26 47.37 323.26 41.22V19.59C323.324 18.5306 323.146 17.4706 322.74 16.49C322.494 16.0461 322.161 15.6567 321.761 15.3455C321.36 15.0344 320.901 14.8079 320.41 14.68C319.898 14.5514 319.365 14.5358 318.847 14.6342C318.329 14.7326 317.838 14.9428 317.41 15.25C315.81 16.33 315.55 18.14 315.55 19.74V41.34C315.55 49.96 319.47 56.06 326.66 58.54C329.267 59.4682 332.058 59.7583 334.8 59.386C337.542 59.0136 340.155 57.9897 342.42 56.4V56.56C341.75 61.1 339.42 63.84 335.29 64.93C333.225 65.5585 331.002 65.4091 329.04 64.51C327.825 63.9632 326.761 63.1293 325.94 62.08L324.81 60.64L324.08 59.81C323.803 59.4013 323.466 59.0371 323.08 58.73L322.87 58.52L322.67 58.42C322.158 58.1149 321.58 57.9407 320.985 57.9128C320.39 57.8849 319.798 58.0041 319.26 58.26C318.703 58.5062 318.214 58.8843 317.836 59.3617C317.458 59.8391 317.202 60.4014 317.09 61C316.83 62.65 317.5 64.05 318.69 65.86C319.645 67.1772 320.776 68.3581 322.05 69.37C325.017 71.621 328.656 72.8049 332.38 72.73C334.066 72.7292 335.745 72.521 337.38 72.11C345.7 69.99 350.3 63.33 350.3 53.35V19.59C350.34 18.5293 350.099 17.4769 349.6 16.54Z" fill="#626262"/>
<path d="M81.7802 27.33C81.6552 26.7345 81.4847 26.1495 81.2702 25.58L81.1102 25.11C78.4202 17.67 72.2302 13.28 64.5802 13.33C63.3468 13.3135 62.1156 13.4377 60.9102 13.7C54.8102 15.04 47.5802 19.43 47.5802 32.7V53.7C47.56 54.7622 47.8112 55.8121 48.3102 56.75V56.8C48.5535 57.2436 48.8848 57.6329 49.2837 57.9441C49.6826 58.2553 50.1408 58.4819 50.6302 58.61C50.9198 58.6708 51.2144 58.7043 51.5102 58.71C52.2717 58.7282 53.0176 58.4925 53.6302 58.04C55.1802 57.04 55.3802 55.25 55.3802 53.55V48.55L55.2302 39.82H66.2302C69.8502 39.82 70.7302 37.96 70.8302 36.36C70.8666 35.8835 70.8076 35.4046 70.6564 34.9513C70.5053 34.4979 70.2652 34.0793 69.9502 33.72C69.45 33.2668 68.861 32.9225 68.2206 32.7091C67.5802 32.4956 66.9024 32.4176 66.2302 32.48H55.2302C55.2302 25.66 57.5002 22.3 62.6102 21.22C64.2308 20.8197 65.9308 20.8779 67.5202 21.3883C69.1096 21.8987 70.5257 22.841 71.6102 24.11C72.4892 25.1135 73.1438 26.2931 73.5302 27.57C74.3002 31.29 74.7102 32.43 75.2302 33.15L75.3802 33.36C75.9845 33.9998 76.7798 34.4264 77.647 34.5761C78.5142 34.7257 79.4065 34.5902 80.1902 34.19C82.5602 32.91 82.3002 29.87 81.7802 27.33Z" fill="#626262"/>
<path d="M363.35 11.53C362.833 12.0684 362.211 12.4965 361.524 12.7887C360.836 13.0808 360.097 13.2309 359.35 13.23C358.602 13.2417 357.859 13.0964 357.17 12.8036C356.481 12.5108 355.861 12.077 355.35 11.53C354.286 10.4585 353.689 9.00989 353.689 7.50002C353.689 5.99014 354.286 4.54151 355.35 3.47002C356.422 2.40624 357.87 1.80927 359.38 1.80927C360.89 1.80927 362.339 2.40624 363.41 3.47002C363.951 3.98318 364.378 4.60469 364.662 5.29396C364.946 5.98323 365.082 6.72473 365.06 7.47002C365.058 8.96861 364.466 10.406 363.41 11.47L363.35 11.53ZM355.86 3.92001C355.404 4.37339 355.042 4.91248 354.795 5.50627C354.548 6.10006 354.42 6.73684 354.42 7.38C354.408 8.03388 354.529 8.68341 354.777 9.28871C355.024 9.89402 355.393 10.4423 355.86 10.9C356.309 11.3653 356.848 11.7332 357.445 11.981C358.042 12.2287 358.684 12.3509 359.33 12.34C359.976 12.3556 360.617 12.2355 361.213 11.9875C361.809 11.7394 362.346 11.3689 362.79 10.9C363.252 10.4382 363.617 9.88911 363.864 9.28477C364.111 8.68044 364.236 8.03293 364.23 7.38C364.246 6.7346 364.126 6.09311 363.878 5.49707C363.63 4.90104 363.259 4.36376 362.79 3.92001C362.344 3.45454 361.806 3.08635 361.211 2.83855C360.615 2.59075 359.975 2.46868 359.33 2.48001C358.028 2.48102 356.78 2.99898 355.86 3.92001ZM359.22 4.23001C359.798 4.19193 360.378 4.26317 360.93 4.44C361.248 4.56229 361.517 4.78446 361.697 5.07303C361.878 5.3616 361.959 5.70097 361.93 6.04001C361.948 6.2833 361.899 6.52677 361.79 6.74493C361.681 6.96309 361.515 7.14792 361.31 7.28001C361.032 7.46208 360.712 7.56889 360.38 7.59001C360.801 7.66566 361.183 7.88474 361.46 8.21001C361.677 8.50092 361.805 8.84807 361.83 9.21001V10.14C361.83 10.3 361.83 10.4 361.88 10.45H361.93H360.93V9.63C360.961 9.36012 360.925 9.08679 360.826 8.83398C360.727 8.58117 360.567 8.35661 360.36 8.18001C359.972 8.00462 359.545 7.93231 359.12 7.97002H358.24V10.45H357.1V4.20001L359.22 4.23001ZM360.41 5.23001C359.993 5.03043 359.532 4.94093 359.07 4.97002H358.14V7.24001H359.14C359.48 7.25619 359.82 7.20523 360.14 7.09001C360.345 7.01868 360.522 6.88251 360.643 6.7021C360.763 6.52169 360.822 6.30684 360.81 6.09001C360.836 5.92065 360.811 5.74734 360.738 5.59233C360.665 5.43732 360.547 5.30768 360.4 5.22002" fill="#626262"/>
</g>
<defs>
<clipPath id="clip0_113_25">
<rect width="365" height="72.8" fill="white"/>
</clipPath>
</defs>
</svg>
