<svg width="40" height="40" viewBox="0 0 40 40" fill="none" xmlns="http://www.w3.org/2000/svg">
<path d="M5 8.74999C4.66848 8.74999 4.35054 8.88169 4.11612 9.11611C3.8817 9.35053 3.75 9.66847 3.75 9.99999C3.75 10.3315 3.8817 10.6495 4.11612 10.8839C4.35054 11.1183 4.66848 11.25 5 11.25H7.775L11.055 24.375C11.3337 25.4875 12.33 26.25 13.4763 26.25H29.0637C30.1925 26.25 31.1513 25.5 31.4475 24.4125L34.6875 12.5H32.07L29.0625 23.75H13.475L10.1962 10.625C10.0608 10.0865 9.74859 9.60909 9.3096 9.26913C8.8706 8.92918 8.33022 8.74637 7.775 8.74999H5ZM27.5 26.25C25.4438 26.25 23.75 27.9437 23.75 30C23.75 32.0562 25.4438 33.75 27.5 33.75C29.5562 33.75 31.25 32.0562 31.25 30C31.25 27.9437 29.5562 26.25 27.5 26.25ZM16.25 26.25C14.1938 26.25 12.5 27.9437 12.5 30C12.5 32.0562 14.1938 33.75 16.25 33.75C18.3062 33.75 20 32.0562 20 30C20 27.9437 18.3062 26.25 16.25 26.25ZM20 8.74999V12.5H16.25V15H20V18.75H22.5V15H26.25V12.5H22.5V8.74999H20ZM16.25 28.75C16.955 28.75 17.5 29.295 17.5 30C17.5 30.705 16.955 31.25 16.25 31.25C15.545 31.25 15 30.705 15 30C15 29.295 15.545 28.75 16.25 28.75ZM27.5 28.75C28.205 28.75 28.75 29.295 28.75 30C28.75 30.705 28.205 31.25 27.5 31.25C26.795 31.25 26.25 30.705 26.25 30C26.25 29.295 26.795 28.75 27.5 28.75Z" fill="#626262"/>
</svg>
