<svg width="40" height="40" viewBox="0 0 40 40" fill="none" xmlns="http://www.w3.org/2000/svg">
<path d="M24.3554 31.018L23.1665 30.7894V32V34.75H10.1665V31.75C10.1665 29.0525 9.35754 26.3456 7.72804 24.0824L7.72811 24.0823L7.72006 24.0714C6.15818 21.9629 5.1665 19.5003 5.1665 16.6667C5.1665 13.2916 6.2661 9.99752 8.43442 7.56056C10.5863 5.14204 13.8493 3.5 18.3332 3.5C22.716 3.5 25.6404 4.95034 27.5401 7.04652C29.4634 9.16875 30.4312 12.0592 30.6696 15.0787L30.6801 15.212L30.7253 15.3378L33.0126 21.7104C32.9466 21.7432 32.8667 21.7793 32.7711 21.8191C32.6447 21.8718 32.5399 21.9119 32.4253 21.9558C32.3368 21.9897 32.2426 22.0257 32.1281 22.0715L32.128 22.0716L31.295 22.4049L30.727 22.6322L30.6707 23.2414L30.1707 28.6581L30.1697 28.6696L30.1689 28.6812C30.0433 30.5013 28.3515 31.8131 26.5358 31.4374L26.5358 31.4373L26.522 31.4347L24.3554 31.018ZM33.2238 21.5817C33.2239 21.5818 33.2225 21.5833 33.2191 21.5862C33.222 21.5831 33.2237 21.5817 33.2238 21.5817Z" stroke="#4E4E4E" stroke-width="2"/>
<path d="M27.9165 19.1667C28.6069 19.1667 29.1665 18.607 29.1665 17.9167C29.1665 17.2263 28.6069 16.6667 27.9165 16.6667C27.2261 16.6667 26.6665 17.2263 26.6665 17.9167C26.6665 18.607 27.2261 19.1667 27.9165 19.1667Z" fill="#363636"/>
<path d="M11.1751 30.4423L11.175 30.4423L11.1696 30.4442L9.64405 30.9723C9.48455 28.5561 8.49979 27.0421 7.48809 25.4866C7.35479 25.2816 7.22102 25.076 7.08861 24.8674C5.87509 22.9561 4.6665 20.6731 4.6665 16.1667C4.6665 8.85948 10.526 3 17.8332 3C19.5819 3 21.5374 3.24445 23.3574 3.74267C25.0893 4.21677 26.668 4.91227 27.8292 5.81914C27.7479 8.23079 26.4308 10.175 25.0617 11.554C24.3587 12.262 23.6541 12.8082 23.1252 13.1772C22.8612 13.3614 22.6421 13.5006 22.4904 13.593C22.4145 13.6392 22.3556 13.6736 22.3165 13.6961C22.2969 13.7073 22.2823 13.7156 22.273 13.7208L22.263 13.7263L22.2613 13.7272L22.2611 13.7273L22.261 13.7274L22.2609 13.7274L21.9998 13.8692V14.1667V18.8553L17.3626 21.1346L17.1929 21.218L17.1208 21.393L14.7875 27.0596L14.7873 27.0596L14.7826 27.072C14.1742 28.6691 12.7963 29.9019 11.1751 30.4423Z" stroke="#646464"/>
<path d="M17.4998 1.75C16.9998 1.75 16.6665 2.08333 16.6665 2.58333V14.1667C16.6665 14.6667 16.9998 15 17.4998 15C17.9998 15 18.3332 14.6667 18.3332 14.1667V2.58333C18.3332 2.08333 17.9998 1.75 17.4998 1.75Z" fill="#546E7A"/>
<path d="M30.23 26.7305C23.6467 26.7305 21.6467 22.6472 21.5634 22.4805C21.3967 22.0639 20.8967 21.8972 20.48 22.0639C20.0634 22.2305 19.8967 22.7305 20.0634 23.1472C20.1467 23.3972 22.5634 28.3972 30.23 28.3972C30.73 28.3972 31.0634 28.0639 31.0634 27.5639C31.0634 27.0639 30.6467 26.7305 30.23 26.7305Z" fill="#546E7A"/>
<path d="M30.6667 29.3333C31.5871 29.3333 32.3333 28.5871 32.3333 27.6667C32.3333 26.7462 31.5871 26 30.6667 26C29.7462 26 29 26.7462 29 27.6667C29 28.5871 29.7462 29.3333 30.6667 29.3333Z" fill="#37474F"/>
<path d="M17.4998 25C20.7215 25 23.3332 22.3883 23.3332 19.1667C23.3332 15.945 20.7215 13.3333 17.4998 13.3333C14.2782 13.3333 11.6665 15.945 11.6665 19.1667C11.6665 22.3883 14.2782 25 17.4998 25Z" fill="#37474F"/>
<path d="M17.4998 22.5C19.3408 22.5 20.8332 21.0076 20.8332 19.1667C20.8332 17.3257 19.3408 15.8333 17.4998 15.8333C15.6589 15.8333 14.1665 17.3257 14.1665 19.1667C14.1665 21.0076 15.6589 22.5 17.4998 22.5Z" fill="#546E7A"/>
</svg>
