<svg width="40" height="40" viewBox="0 0 40 40" fill="none" xmlns="http://www.w3.org/2000/svg">
<path d="M33.6204 21.8781L33.6203 21.8782C33.6203 21.8782 33.6203 21.8784 33.6202 21.8785C33.6182 21.8844 33.5947 21.9375 33.4667 22.0255C33.3437 22.1101 33.1738 22.1932 32.9639 22.2806C32.8356 22.3341 32.7169 22.3797 32.594 22.4268C32.5048 22.4611 32.4133 22.4962 32.3143 22.5358L32.3142 22.5358L31.4812 22.8691L31.1972 22.9828L31.1691 23.2874L30.6691 28.704L30.669 28.704L30.6682 28.7156C30.5221 30.834 28.5511 32.3649 26.435 31.927L26.435 31.927L26.4281 31.9257L24.2614 31.509L23.667 31.3947V32V35.25H9.66699V31.75C9.66699 29.1513 8.88751 26.5478 7.32276 24.3745L7.3228 24.3745L7.31877 24.3691C5.7045 22.1898 4.66699 19.6252 4.66699 16.6667C4.66699 13.1875 5.80013 9.76959 8.06137 7.2282C10.3144 4.69602 13.7167 3 18.3337 3C22.8376 3 25.904 4.496 27.9111 6.71076C29.93 8.93854 30.9244 11.9463 31.1685 15.0394L31.1738 15.106L31.1964 15.1689L33.5294 21.6689L33.546 21.7151L33.5713 21.7572C33.6083 21.819 33.6174 21.8554 33.6196 21.869C33.6201 21.8725 33.6203 21.8749 33.6203 21.8762L33.6204 21.878M33.6204 21.8781C33.6204 21.8779 33.6204 21.8779 33.6204 21.878M33.6204 21.8781L33.6204 21.878M33.6204 21.8781L33.6204 21.878" stroke="black"/>
<path d="M27.917 19.1667C28.6073 19.1667 29.167 18.607 29.167 17.9167C29.167 17.2263 28.6073 16.6667 27.917 16.6667C27.2266 16.6667 26.667 17.2263 26.667 17.9167C26.667 18.607 27.2266 19.1667 27.917 19.1667Z" fill="#363636"/>
<path d="M11.1755 30.4423L11.1755 30.4423L11.1701 30.4442L9.64454 30.9723C9.48503 28.5561 8.50028 27.0421 7.48858 25.4866C7.35528 25.2816 7.22151 25.076 7.0891 24.8674C5.87558 22.9561 4.66699 20.6731 4.66699 16.1667C4.66699 8.85948 10.5265 3 17.8337 3C19.5823 3 21.5379 3.24445 23.3579 3.74267C25.0898 4.21677 26.6685 4.91227 27.8297 5.81914C27.7484 8.23079 26.4313 10.175 25.0622 11.554C24.3592 12.262 23.6546 12.8082 23.1257 13.1772C22.8617 13.3614 22.6426 13.5006 22.4909 13.593C22.415 13.6392 22.3561 13.6736 22.317 13.6961C22.2974 13.7073 22.2828 13.7156 22.2735 13.7208L22.2635 13.7263L22.2618 13.7272L22.2616 13.7273L22.2615 13.7274L22.2614 13.7274L22.0003 13.8692V14.1667V18.8553L17.3631 21.1346L17.1933 21.218L17.1213 21.393L14.788 27.0596L14.7878 27.0596L14.7831 27.072C14.1747 28.6691 12.7967 29.9019 11.1755 30.4423Z" stroke="black"/>
<path d="M17.5003 1.75C17.0003 1.75 16.667 2.08333 16.667 2.58333V14.1667C16.667 14.6667 17.0003 15 17.5003 15C18.0003 15 18.3337 14.6667 18.3337 14.1667V2.58333C18.3337 2.08333 18.0003 1.75 17.5003 1.75Z" fill="#546E7A"/>
<path d="M30.2305 26.7305C23.6472 26.7305 21.6472 22.6472 21.5639 22.4805C21.3972 22.0639 20.8972 21.8972 20.4805 22.0639C20.0639 22.2305 19.8972 22.7305 20.0639 23.1472C20.1472 23.3972 22.5639 28.3972 30.2305 28.3972C30.7305 28.3972 31.0639 28.0639 31.0639 27.5639C31.0639 27.0639 30.6472 26.7305 30.2305 26.7305Z" fill="#546E7A"/>
<path d="M30.6667 29.3333C31.5871 29.3333 32.3333 28.5871 32.3333 27.6667C32.3333 26.7462 31.5871 26 30.6667 26C29.7462 26 29 26.7462 29 27.6667C29 28.5871 29.7462 29.3333 30.6667 29.3333Z" fill="#37474F"/>
<path d="M17.5003 25C20.722 25 23.3337 22.3883 23.3337 19.1667C23.3337 15.945 20.722 13.3333 17.5003 13.3333C14.2787 13.3333 11.667 15.945 11.667 19.1667C11.667 22.3883 14.2787 25 17.5003 25Z" fill="#37474F"/>
<path d="M17.5003 22.5C19.3413 22.5 20.8337 21.0076 20.8337 19.1667C20.8337 17.3257 19.3413 15.8333 17.5003 15.8333C15.6594 15.8333 14.167 17.3257 14.167 19.1667C14.167 21.0076 15.6594 22.5 17.5003 22.5Z" fill="#546E7A"/>
</svg>
