<svg width="60" height="58" viewBox="0 0 60 58" fill="none" xmlns="http://www.w3.org/2000/svg">
<path d="M44.6372 37.4301L43.8948 37.2988V26.2822C44.9471 26.215 45.784 25.3748 45.784 24.3411V18.7792C45.784 17.7455 44.9471 16.9054 43.8948 16.8381V13.8767C43.8948 6.47075 37.6619 0.445007 30 0.445007C22.3387 0.445007 16.1052 6.47075 16.1052 13.8767V16.8381C15.0529 16.9054 14.216 17.7455 14.216 18.7792V24.3411C14.216 25.3748 15.0529 26.215 16.1052 26.2822V37.2988L15.3628 37.4301C12.3129 37.9695 10.1001 40.5356 10.1001 43.532V55.2478C10.1001 56.5201 11.1707 57.5551 12.4869 57.5551H47.5137C48.8299 57.5551 49.9006 56.5201 49.9006 55.2478V43.532C49.8999 40.5356 47.6864 37.9695 44.6372 37.4301ZM39.4422 36.5126C37.7427 36.2118 36.5092 34.7821 36.5092 33.112V32.3594C36.7679 32.1449 37.0298 31.9361 37.274 31.702C37.5031 31.4831 37.7171 31.2483 37.9311 31.0135C40.3573 30.6004 42.2517 28.6834 42.5406 26.2949H42.5819V37.0672L39.4422 36.5126ZM19.346 16.7366C26.4828 15.7581 30.9978 14.2231 33.7824 11.8175C35.7845 14.0194 37.6724 15.4485 40.6303 17.0152L40.1111 23.0225C39.9877 24.4439 39.6162 25.8215 39.0063 27.1179C38.6853 27.8007 38.2967 28.46 37.851 29.0775C37.6672 29.3319 37.467 29.5762 37.2635 29.8173C37.1604 29.8243 37.058 29.8326 36.953 29.8326H32.761C32.398 29.8326 32.1045 30.1162 32.1045 30.4671C32.1045 30.818 32.398 31.1017 32.761 31.1017H35.9992C34.7447 32.2179 33.3045 33.0809 31.6923 33.6444C30.6013 34.0264 29.3987 34.0264 28.3077 33.6444C23.6102 32.0034 20.3064 27.8344 19.8902 23.0232L19.346 16.7366ZM40.7387 26.2949H41.2139C41.0288 27.4587 40.3494 28.4657 39.3851 29.1041C39.6844 28.6307 39.9654 28.1459 40.2017 27.6427C40.4085 27.203 40.5818 26.7512 40.7387 26.2949ZM27.862 34.8373C28.5512 35.0785 29.2759 35.1984 30 35.1984C30.724 35.1984 31.4488 35.0785 32.1387 34.8373C33.2349 34.4547 34.255 33.9382 35.2062 33.3201C35.2942 35.2606 36.5965 36.9301 38.4562 37.564C36.6694 42.2807 33.8369 46.1438 30 49.0412C26.1631 46.1438 23.3306 42.2807 21.5444 37.5646C23.4035 36.9307 24.7052 35.2625 24.7944 33.3233C25.7391 33.9382 26.7631 34.4534 27.862 34.8373ZM44.4712 18.7792V24.3411C44.4712 24.7187 44.1534 25.0264 43.7629 25.0264H41.1023C41.2494 24.4027 41.3623 23.7713 41.4181 23.1291L41.8533 18.0946H43.7622C44.1534 18.0939 44.4712 18.401 44.4712 18.7792ZM30 1.71412C36.9372 1.71412 42.5819 7.17003 42.5819 13.8767V16.8248H41.9636L41.9734 16.7074C41.9951 16.4555 41.8605 16.215 41.6301 16.0951C38.386 14.4148 36.4758 12.947 34.3318 10.4888C34.2124 10.3523 34.0397 10.2705 33.8553 10.2641C33.6583 10.2578 33.4909 10.3257 33.3616 10.4526C30.7759 12.9908 26.2084 14.5664 18.5524 15.5614C18.2058 15.6065 17.9563 15.906 17.9859 16.2436L18.0364 16.8254H17.4187V13.8773C17.4181 7.17003 23.0621 1.71412 30 1.71412ZM15.5288 24.3411V18.7792C15.5288 18.4017 15.8466 18.0946 16.2371 18.0946H18.1461L18.5819 23.1291C18.6377 23.7732 18.7421 24.4071 18.8891 25.0264H16.2378C15.8466 25.0258 15.5288 24.7187 15.5288 24.3411ZM17.4181 26.2949H19.2627C20.0793 28.6593 21.5451 30.7641 23.4908 32.374V33.1113C23.4908 34.7815 22.2573 36.2118 20.5578 36.5119L17.4181 37.0665V26.2949ZM15.5991 38.6783L20.2565 37.8553C22.1864 43.0326 25.3222 47.2397 29.6061 50.3478L30 50.6333L30.3939 50.3478C34.6778 47.2397 37.8136 43.0326 39.7435 37.8553L44.4009 38.6783C46.8265 39.1079 48.587 41.1493 48.587 43.532V43.9286L42.834 48.9397C41.6091 50.007 40.906 51.5331 40.906 53.1271V56.286H19.0926V53.1265C19.0926 51.5319 18.3896 50.0057 17.1647 48.9391L11.4117 43.928V43.532C11.413 41.1493 13.1735 39.1079 15.5991 38.6783ZM11.413 55.2478V45.6368L16.287 49.8826C17.2362 50.7095 17.7804 51.8917 17.7804 53.1265V56.286H12.4862C11.8941 56.286 11.413 55.8208 11.413 55.2478ZM47.5137 56.286H42.2202V53.1265C42.2202 51.8917 42.7644 50.7088 43.713 49.8826L48.5877 45.6368V55.2478C48.587 55.8208 48.1059 56.286 47.5137 56.286Z" fill="#4E4E4E"/>
<path d="M23.5798 19.8675C24.8992 19.2552 26.1819 19.2552 27.5014 19.8675C27.5933 19.9101 27.6898 19.9304 27.7849 19.9304C28.0298 19.9304 28.2641 19.7977 28.377 19.5706C28.5339 19.2546 28.3961 18.8757 28.0692 18.7241C26.3913 17.9448 24.6892 17.9448 23.0113 18.7241C22.6844 18.8757 22.5466 19.2546 22.7035 19.5706C22.861 19.8866 23.2536 20.0198 23.5798 19.8675Z" fill="#3F3F3F"/>
<path d="M32.1138 19.8675C33.4326 19.2558 34.7159 19.2558 36.0354 19.8675C36.1273 19.9101 36.2238 19.9304 36.3189 19.9304C36.5638 19.9304 36.7981 19.7977 36.9111 19.5706C37.0679 19.2546 36.9301 18.8757 36.6032 18.7241C34.926 17.9448 33.2245 17.9448 31.546 18.7241C31.2191 18.8757 31.0812 19.2546 31.2381 19.5706C31.3944 19.8859 31.7843 20.0211 32.1138 19.8675Z" fill="#3F3F3F"/>
<path d="M26.5762 27.1338C26.3235 27.3851 26.3287 27.7861 26.5887 28.0311C27.7013 29.0787 28.8468 29.6029 29.9949 29.6029C31.1424 29.6029 32.2925 29.0793 33.411 28.0323C33.6716 27.7887 33.6782 27.387 33.4261 27.1351C33.1741 26.8838 32.7585 26.8768 32.4979 27.1205C30.7886 28.7196 29.2013 28.7208 27.5044 27.1217C27.2445 26.8774 26.8289 26.8832 26.5762 27.1338Z" fill="#3F3F3F"/>
</svg>
