<svg width="418" height="89" viewBox="0 0 418 89" fill="none" xmlns="http://www.w3.org/2000/svg">
<path fill-rule="evenodd" clip-rule="evenodd" d="M89.0735 27.6798C89.0735 11.562 76.3494 0 60.5397 0C55.1417 0 49.7415 1.05165 45.1165 4.55578C40.8759 1.40288 35.4757 0 30.0777 0C13.4972 0 0 12.9649 0 29.4339C0 58.5145 30.8485 82.343 45.1165 89V71.1281C62.8521 65.5228 89.0735 46.6013 89.0735 27.6798V27.6798ZM45.1143 54.6591V70.7769C33.5453 62.0186 17.7356 45.5496 17.7356 30.1323C17.7356 22.0724 23.9044 15.4153 32.0036 15.4153C38.1747 15.4153 43.1861 18.9195 45.1143 23.8265C47.0425 18.9195 52.4405 15.4153 58.225 15.4153C65.9377 15.4153 71.7222 21.3719 71.7222 28.3802C71.72 40.2934 53.2113 51.157 45.1143 54.6591V54.6591ZM408.743 55.0124V52.5579H410.283C411.44 52.5579 412.211 52.5579 412.211 53.6095C412.211 54.6612 411.438 55.0124 410.283 55.0124H408.743ZM408.743 56.062H409.901L412.213 59.5641H414.141L411.44 56.062C412.984 55.7087 413.757 55.3595 413.757 53.6075C413.757 52.2087 412.6 51.5062 410.672 51.5062H407.202V59.5641H408.741V56.062H408.743ZM418 55.3616C418 50.8058 414.526 48.0021 410.285 48.0021C406.044 48.0021 402.19 50.8058 402.19 55.3616C402.19 59.5641 405.66 62.7211 410.285 62.7211C414.526 62.7211 418 59.5641 418 55.3616ZM416.454 55.3616C416.454 58.8677 413.757 61.3182 410.283 61.3182C406.429 61.3182 404.116 58.5145 404.116 55.3616C404.116 51.8554 406.813 49.405 410.283 49.405C413.757 49.405 416.454 51.8554 416.454 55.3616ZM197.044 38.8926C197.044 40.9959 196.658 40.9959 196.274 40.9959C193.959 40.9959 194.732 34.6901 188.174 34.6901C185.862 34.6901 183.163 35.7417 183.163 38.1942C183.163 44.1508 198.973 43.1012 198.973 53.9648C198.588 62.3719 190.105 63.7747 185.862 63.7747C182.006 63.7747 176.992 62.7231 176.992 60.2686C176.992 56.7624 176.992 54.312 178.149 54.312C179.691 54.312 179.307 61.3182 186.633 61.3182C190.105 61.3182 192.804 59.9194 192.804 57.1157C192.804 49.407 177.381 50.4586 177.381 42.0495C177.381 34.6901 183.936 32.5888 189.718 32.5888C193.188 32.5888 197.044 34.3409 197.044 34.6921V38.8926ZM120.693 38.1901C120.693 39.593 121.079 39.9422 123.392 39.9422C129.947 39.9422 131.105 38.8906 131.875 37.4897C132.646 35.3885 132.646 33.9856 133.804 33.9856C134.574 33.9856 134.961 34.3368 134.961 42.0455C134.961 47.3017 134.577 48.7025 133.804 48.3533C133.033 48.3533 132.646 47.3017 132.262 45.8988C131.878 44.498 131.105 42.0455 124.936 42.0455C121.079 42.0455 120.695 42.3947 120.695 44.498V55.7088C121.082 59.5621 121.852 59.9153 125.709 60.6178C127.637 60.967 128.408 61.3162 128.408 62.0166C128.408 62.717 127.25 63.0682 125.709 63.0682H108.357C107.584 63.0682 107.2 62.719 107.2 61.6694C107.2 60.967 107.971 60.6178 111.056 60.6178C112.214 60.6178 112.985 60.2645 112.985 57.8141V26.9794C112.985 24.5269 112.6 24.1756 110.67 23.8265C107.971 23.8265 107.971 23.4752 107.971 22.7748C107.971 21.7232 108.742 21.374 110.67 21.374H135.734C138.049 21.374 138.819 21.374 138.819 24.5269C138.819 31.5351 138.819 31.5351 137.662 31.5351C136.891 31.5351 136.891 29.0827 135.734 27.6798C134.192 24.1757 127.635 23.8265 125.322 23.8265C121.466 24.1756 120.695 24.1757 120.695 28.3802V38.1901H120.693V38.1901ZM210.155 53.9607C210.155 58.1633 211.312 58.8657 214.398 58.8657C215.937 58.8657 217.868 58.1633 218.252 58.1633C218.641 58.1633 219.025 58.5125 219.025 59.2149C219.025 60.967 215.167 63.7707 210.542 63.7707C206.301 63.7707 203.215 61.6694 203.215 56.062V38.1901C203.215 37.4897 203.215 37.1385 202.445 37.1385C200.132 37.1385 199.361 37.1385 199.361 36.0868C199.361 35.0352 202.445 34.3368 204.762 32.2335C207.461 29.781 208.618 26.9773 209.773 26.9773C211.317 26.9773 209.389 32.9339 211.701 32.9339H217.488C219.027 32.9339 219.412 33.2852 219.412 34.686C219.412 36.4381 218.254 36.4381 217.872 36.4381H212.086C209.769 36.4381 210.155 37.4897 210.155 39.593V53.9607V53.9607ZM170.823 32.936C165.809 32.936 164.654 36.0889 163.497 36.0889C161.955 36.0889 163.883 31.8843 161.955 31.8843C161.184 31.8843 160.798 33.2852 157.712 35.0372C155.4 36.4381 153.472 37.1405 153.472 38.1901C153.085 40.2934 156.171 38.1901 156.171 43.0971C156.171 43.0971 156.942 59.2149 155.786 59.5641C154.629 59.9174 153.858 61.3162 151.928 61.3162C150.002 61.3162 148.845 60.2645 148.845 60.2645C148.074 59.2129 148.46 58.5125 148.46 56.7584V37.8389V32.2335C148.46 31.8823 148.074 31.8823 147.689 31.8823C147.303 31.8823 146.146 33.6344 143.833 35.0352C139.593 36.7873 137.664 36.0869 137.664 37.4877C137.664 40.2914 141.521 37.8389 141.521 42.0435V57.812C141.521 59.2108 141.136 59.9133 140.363 60.6158C140.363 60.6158 139.593 60.9649 138.822 60.9649C137.28 61.3141 136.507 61.6674 136.507 62.3638C136.507 62.717 136.894 63.0662 137.664 63.0662H168.897C170.054 63.0662 170.439 63.0662 170.439 62.0146C170.823 60.6157 167.355 60.6158 167.355 60.6158C163.883 60.6158 163.113 58.8637 163.113 56.4092V43.4463C163.113 40.2934 163.883 38.5414 165.427 38.5414C167.356 38.5414 168.513 41.6943 171.596 41.6943C175.066 41.6943 175.837 38.8906 175.837 37.8409C175.835 35.0372 173.522 32.936 170.823 32.936ZM352.831 53.9607C352.831 58.1633 354.37 58.8657 357.072 58.8657C359 58.8657 360.541 58.1633 360.93 58.1633C361.314 58.1633 361.699 58.5125 361.699 59.2149C361.699 60.967 358.229 63.7707 353.215 63.7707C348.975 63.7707 345.889 61.6694 345.889 56.062L346.278 38.1901C346.278 37.4897 345.889 37.1385 345.505 37.1385C343.192 37.1385 342.035 37.1385 342.035 36.0868C342.035 35.0352 345.505 34.3368 347.817 32.2335C350.13 29.781 351.291 26.9773 352.447 26.9773C354.37 26.9773 352.058 32.9339 354.759 32.9339H360.541C362.085 32.9339 362.47 33.2852 362.47 34.686C362.085 36.4381 361.312 36.4381 360.93 36.4381H355.143C352.831 36.4381 352.831 37.4897 352.831 39.593V53.9607ZM374.812 37.1405L375.196 37.4897C375.585 37.4897 379.437 33.2852 384.835 33.2852C390.621 33.2852 395.246 35.7376 395.246 43.7975V58.1633C395.246 59.5621 396.019 59.9153 397.174 60.6178C399.103 61.3162 399.103 61.3162 399.103 62.0166C399.103 62.717 398.33 63.0682 396.79 63.0682C396.017 63.0682 387.534 62.719 385.99 62.719C384.832 62.719 383.677 62.719 383.677 62.0166C383.677 60.9649 385.605 60.9649 386.763 60.2645C387.92 59.9153 388.307 58.1633 388.307 55.0104V43.7975C388.307 43.0971 389.075 37.8409 381.365 37.8409C379.437 37.8409 374.809 39.2418 374.809 43.0971V58.8657C374.809 59.9174 375.194 60.2645 375.967 60.2645C377.124 60.967 377.895 60.967 378.668 61.3162C379.437 61.3162 380.207 61.6694 380.207 62.0186C380.207 62.7211 379.05 63.0703 377.895 63.0703C376.351 63.0703 366.71 62.7211 364.398 63.0703C363.625 63.0703 363.24 62.3678 363.24 61.6714C363.625 60.969 365.169 60.969 365.937 60.6198C367.865 59.5641 367.865 58.8677 367.865 55.3616V26.2789C367.481 24.1756 364.395 24.8781 364.395 23.4752C364.395 22.4236 372.495 19.2707 373.652 19.2707C374.809 19.6219 374.809 21.0227 374.809 22.4256V37.1405H374.812ZM339.722 60.2665C337.406 59.5641 337.021 59.2149 337.021 57.8161V21.0228C337.021 19.9711 337.021 19.2707 336.248 19.2707C335.864 19.2707 333.163 21.0227 332.008 21.374C329.695 22.4256 326.61 22.7748 326.61 24.1777C326.61 25.2293 328.153 25.5785 328.922 26.281C330.079 26.9814 330.079 27.6818 330.079 32.5868V53.9628C330.079 57.1157 329.695 58.1653 328.922 58.8677C328.538 59.5661 328.153 59.5661 327.383 59.9194C326.225 60.2686 325.454 60.2686 324.297 59.9194C323.14 59.5661 321.596 58.1673 321.596 54.6612V52.9091V38.8946C321.596 35.0413 319.672 32.5888 313.112 32.5888C304.629 32.2396 298.458 39.5971 298.458 41.6983C298.458 42.75 298.847 43.4504 300.386 43.8016C302.698 43.8016 305.015 42.0495 305.4 39.5971C306.173 36.0909 308.485 35.3925 310.798 35.0413C314.267 35.0413 315.423 37.4938 315.423 40.9979C315.423 42.75 315.423 43.4504 313.883 44.1508C309.258 46.9545 299.613 49.0558 299.229 57.4669C298.844 63.0743 302.698 64.1239 304.627 63.7747C310.025 63.7747 314.654 59.9214 314.654 59.9214C315.423 60.2706 317.74 63.0743 321.209 63.0743H332.778C335.48 63.0743 341.646 63.4235 342.801 62.7251C343.574 62.3719 342.417 60.9731 342.801 61.3223C342.419 60.967 342.419 60.967 339.722 60.2665V60.2665ZM308.485 59.5641C306.557 59.2149 305.4 57.8161 305.4 55.7108C305.4 50.1074 313.11 46.9525 313.883 46.9525C315.041 46.6033 315.041 47.6549 315.041 50.4587C315.425 57.1137 313.883 60.2666 308.485 59.5641ZM284.965 34.688C289.206 34.688 289.974 37.8409 289.974 38.8926C289.974 42.7459 288.817 43.7996 279.567 43.4484C278.023 43.4484 277.25 43.4484 277.25 42.3967C277.25 39.593 280.336 34.688 284.965 34.688V34.688ZM295.377 46.2521C296.534 46.2521 296.534 45.5496 296.534 44.8492C296.534 40.2934 293.449 32.5848 284.194 32.5848C277.252 32.2356 269.54 39.2418 269.54 48.7025C269.54 57.1136 275.711 63.7707 283.421 63.7707C291.905 63.7707 295.761 57.8141 295.761 56.7604C295.761 56.062 295.761 55.7088 294.988 55.7088C293.449 56.062 290.747 59.2149 286.12 58.8657C281.88 58.8657 276.864 55.0124 276.864 48.7025C276.864 45.5496 278.792 46.2521 279.565 46.2521H295.377V46.2521Z" fill="#757575"/>
<path fill-rule="evenodd" clip-rule="evenodd" d="M254.501 63.0682C253.728 63.0682 252.957 62.719 252.957 62.0166C252.957 61.3141 254.114 60.9649 256.431 60.6178C257.588 60.2645 258.355 59.2149 258.355 56.7604V46.2521C258.355 44.8492 258.355 43.0971 256.431 43.0971H243.702C242.545 43.0971 241.39 43.0971 241.39 45.1984V56.7604C241.39 59.2149 242.547 60.2665 243.318 60.6178C246.019 60.967 246.788 61.3162 246.788 62.0166C246.788 62.717 246.404 63.0682 245.631 63.0682H229.821C229.052 63.0682 228.664 62.719 228.664 62.0166C228.664 61.6674 229.437 61.3141 232.133 60.6178C233.295 60.2645 234.45 59.9153 234.45 57.8141V26.9794C234.45 25.2273 234.062 23.8264 232.133 23.8264C230.21 23.8264 229.052 23.4752 229.052 22.4256C229.052 21.7232 230.21 21.374 230.976 21.374H244.473C245.246 21.374 246.401 21.374 246.401 22.7748C246.401 23.4752 245.628 23.8264 243.7 23.8264C241.776 24.1756 241.388 24.8781 241.388 26.6281V38.1901C241.388 39.2418 241.388 40.2934 242.932 40.2934H256.813C258.353 40.2934 258.353 39.2418 258.353 38.1901V25.5765C258.353 24.1756 256.813 23.8264 256.04 23.8264C254.501 23.8264 253.343 23.4752 253.343 22.7748C253.343 21.7232 254.501 21.374 255.656 21.374H268.764C270.308 21.374 270.692 21.7232 270.692 22.4256C270.692 24.1777 268.38 23.8265 266.834 24.1777C266.449 24.5269 265.676 24.8781 265.676 27.3306V56.7624C265.676 59.2169 266.065 60.2686 268.378 60.6198C269.917 60.969 270.69 60.969 270.69 62.0186C270.69 62.7211 270.306 63.0703 269.151 63.0703L254.501 63.0682V63.0682Z" fill="#757575"/>
</svg>
