<svg width="62" height="62" viewBox="0 0 62 62" fill="none" xmlns="http://www.w3.org/2000/svg">
<path d="M31 36.743L31.6453 35.5572C31.4478 35.4461 31.2257 35.3877 31 35.3877C30.7743 35.3877 30.5522 35.4461 30.3547 35.5572L31 36.743ZM25.232 39.9883L23.9147 39.7712C23.8742 40.0228 23.9042 40.2808 24.0012 40.5158C24.0982 40.7508 24.2583 40.9532 24.4631 41.0999C24.6679 41.2466 24.9092 41.3316 25.1593 41.3452C25.4095 41.3588 25.6583 41.3004 25.8773 41.1768L25.232 39.9883ZM26.3333 33.1151L27.648 33.3322C27.6815 33.1231 27.6664 32.9088 27.6039 32.7067C27.5414 32.5045 27.4332 32.3201 27.288 32.1681L26.3333 33.1178V33.1151ZM21.6667 28.2499L21.4667 26.9068C21.2239 26.944 20.996 27.0487 20.808 27.2093C20.62 27.3699 20.4792 27.5802 20.4011 27.817C20.3231 28.0539 20.3108 28.308 20.3657 28.5515C20.4205 28.795 20.5404 29.0183 20.712 29.1969L21.6667 28.2472V28.2499ZM28.1147 27.2459L28.3173 28.5891C28.5338 28.5554 28.7387 28.4679 28.914 28.3344C29.0894 28.201 29.2297 28.0256 29.3227 27.8239L28.1147 27.2459V27.2459ZM31 20.9942L32.208 20.4189C32.1006 20.1851 31.93 19.9872 31.716 19.8487C31.502 19.7101 31.2536 19.6364 31 19.6364C30.7464 19.6364 30.498 19.7101 30.284 19.8487C30.07 19.9872 29.8994 20.1851 29.792 20.4189L31 20.9942ZM33.8853 27.2459L32.6773 27.8239C32.7703 28.0256 32.9106 28.201 33.086 28.3344C33.2613 28.4679 33.4662 28.5554 33.6827 28.5891L33.8853 27.2459V27.2459ZM40.3333 28.2499L41.288 29.1969C41.4596 29.0183 41.5795 28.795 41.6343 28.5515C41.6892 28.308 41.6769 28.0539 41.5989 27.817C41.5208 27.5802 41.38 27.3699 41.192 27.2093C41.004 27.0487 40.7761 26.944 40.5333 26.9068L40.3333 28.2499ZM35.6667 33.1151L34.712 32.1681C34.5664 32.3204 34.458 32.5053 34.3955 32.7079C34.3329 32.9106 34.3181 33.1253 34.352 33.3349L35.6667 33.1178V33.1151ZM36.768 39.9883L36.1227 41.1768C36.3419 41.3007 36.591 41.3591 36.8415 41.3455C37.0919 41.3318 37.3334 41.2465 37.5384 41.0995C37.7433 40.9524 37.9034 40.7495 38.0001 40.5141C38.0969 40.2787 38.1264 40.0203 38.0853 39.7685L36.768 39.9883ZM30.3547 35.5572L24.5867 38.7998L25.8773 41.1768L31.6453 37.9315L30.3547 35.5572V35.5572ZM26.5467 40.2054L27.648 33.3349L25.0187 32.8981L23.9147 39.7685L26.5467 40.2081V40.2054ZM27.288 32.1681L22.6213 27.3002L20.712 29.1969L25.3787 34.0621L27.288 32.1681V32.1681ZM21.8667 29.5904L28.3173 28.5864L27.9147 25.9055L21.4667 26.9095L21.8667 29.5904V29.5904ZM29.3227 27.8239L32.208 21.5694L29.792 20.4189L26.9093 26.6707L29.3227 27.8239V27.8239ZM29.792 21.5694L32.68 27.8239L35.0933 26.6707L32.2107 20.4189L29.7947 21.5694H29.792ZM33.6853 28.5918L40.1333 29.5931L40.5333 26.9095L34.0853 25.9082L33.6853 28.5918ZM39.3787 27.3029L34.712 32.1709L36.6213 34.0648L41.288 29.1996L39.3787 27.3029ZM34.352 33.3349L35.4533 40.2081L38.0853 39.7685L36.9813 32.8981L34.352 33.3322V33.3349ZM37.4133 38.7998L31.6453 35.5572L30.3547 37.9315L36.1227 41.1768L37.4133 38.7998V38.7998ZM31 48.1287C26.4029 48.1287 21.9941 46.2704 18.7435 42.9628C15.4929 39.6551 13.6667 35.169 13.6667 30.4912H11C11 35.8886 13.1071 41.0649 16.8579 44.8815C20.6086 48.698 25.6957 50.8421 31 50.8421V48.1287ZM48.3333 30.4912C48.3333 32.8074 47.885 35.1009 47.0139 37.2408C46.1428 39.3807 44.8661 41.325 43.2565 42.9628C41.647 44.6006 39.7362 45.8997 37.6332 46.7861C35.5302 47.6724 33.2762 48.1287 31 48.1287V50.8421C36.3043 50.8421 41.3914 48.698 45.1421 44.8815C48.8929 41.0649 51 35.8886 51 30.4912H48.3333ZM31 12.8538C33.2762 12.8538 35.5302 13.31 37.6332 14.1964C39.7362 15.0827 41.647 16.3819 43.2565 18.0197C44.8661 19.6575 46.1428 21.6018 47.0139 23.7417C47.885 25.8815 48.3333 28.175 48.3333 30.4912H51C51 25.0938 48.8929 19.9175 45.1421 16.101C41.3914 12.2845 36.3043 10.1404 31 10.1404V12.8538ZM31 10.1404C25.6957 10.1404 20.6086 12.2845 16.8579 16.101C13.1071 19.9175 11 25.0938 11 30.4912H13.6667C13.6667 25.8135 15.4929 21.3273 18.7435 18.0197C21.9941 14.712 26.4029 12.8538 31 12.8538V10.1404Z" fill="#4E4E4E"/>
<path d="M29.6484 2.62633C29.809 2.43118 30.014 2.27339 30.2479 2.16489C30.4818 2.05638 30.7385 2 30.9986 2C31.2587 2 31.5154 2.05638 31.7493 2.16489C31.9832 2.27339 32.1882 2.43118 32.3488 2.62633L37.5235 8.90128C37.7335 9.15649 38.0183 9.34643 38.3417 9.44698C38.6652 9.54753 39.0126 9.55416 39.34 9.46602L47.3925 7.28889C47.6425 7.22093 47.9055 7.20803 48.1615 7.25118C48.4175 7.29432 48.6599 7.39238 48.8704 7.53795C49.0809 7.68351 49.254 7.87279 49.3765 8.09147C49.4991 8.31016 49.568 8.55255 49.5779 8.80033L49.8926 16.7804C49.9058 17.1046 50.0197 17.4177 50.2199 17.68C50.4201 17.9423 50.6974 18.142 51.0168 18.2537L58.8748 21.0092C59.1187 21.0945 59.3392 21.2316 59.5195 21.41C59.6998 21.5885 59.8353 21.8036 59.9157 22.0393C59.9961 22.2749 60.0194 22.5249 59.9838 22.7704C59.9482 23.0159 59.8546 23.2505 59.7101 23.4564L55.0473 30.0888C54.8579 30.3583 54.7568 30.6755 54.7568 31C54.7568 31.3245 54.8579 31.6417 55.0473 31.9112L59.7101 38.5436C59.8546 38.7495 59.9482 38.9841 59.9838 39.2296C60.0194 39.4751 59.9961 39.7251 59.9157 39.9607C59.8353 40.1964 59.6998 40.4115 59.5195 40.59C59.3392 40.7684 59.1187 40.9055 58.8748 40.9908L51.0168 43.7463C50.698 43.8584 50.4212 44.0583 50.2216 44.3206C50.022 44.5828 49.9085 44.8957 49.8955 45.2196L49.5779 53.1997C49.568 53.4475 49.4991 53.6898 49.3765 53.9085C49.254 54.1272 49.0809 54.3165 48.8704 54.4621C48.6599 54.6076 48.4175 54.7057 48.1615 54.7488C47.9055 54.792 47.6425 54.7791 47.3925 54.7111L39.34 52.534C39.0125 52.4449 38.6646 52.4509 38.3406 52.5509C38.0167 52.651 37.7312 52.8407 37.5207 53.096L32.3516 59.3737C32.191 59.5688 31.986 59.7266 31.7521 59.8351C31.5182 59.9436 31.2615 60 31.0014 60C30.7413 60 30.4846 59.9436 30.2507 59.8351C30.0168 59.7266 29.8118 59.5688 29.6512 59.3737L24.4765 53.0987C24.2665 52.8435 23.9817 52.6536 23.6583 52.553C23.3348 52.4525 22.9874 52.4458 22.66 52.534L14.6075 54.7111C14.3575 54.7791 14.0945 54.792 13.8385 54.7488C13.5825 54.7057 13.3401 54.6076 13.1296 54.4621C12.9191 54.3165 12.746 54.1272 12.6235 53.9085C12.5009 53.6898 12.432 53.4475 12.4221 53.1997L12.1074 45.2196C12.0942 44.8954 11.9803 44.5823 11.7801 44.32C11.5799 44.0577 11.3026 43.858 10.9832 43.7463L3.12524 40.9908C2.88129 40.9055 2.66085 40.7684 2.48053 40.59C2.30021 40.4115 2.16473 40.1964 2.0843 39.9607C2.00386 39.7251 1.98058 39.4751 2.01621 39.2296C2.05183 38.9841 2.14543 38.7495 2.28995 38.5436L6.95267 31.9112C7.14207 31.6417 7.24318 31.3245 7.24318 31C7.24318 30.6755 7.14207 30.3583 6.95267 30.0888L2.28995 23.4564C2.14543 23.2505 2.05183 23.0159 2.01621 22.7704C1.98058 22.5249 2.00386 22.2749 2.0843 22.0393C2.16473 21.8036 2.30021 21.5885 2.48053 21.41C2.66085 21.2316 2.88129 21.0945 3.12524 21.0092L10.9832 18.2537C11.302 18.1416 11.5788 17.9417 11.7784 17.6794C11.978 17.4172 12.0915 17.1043 12.1045 16.7804L12.4221 8.80033C12.432 8.55255 12.5009 8.31016 12.6235 8.09147C12.746 7.87279 12.9191 7.68351 13.1296 7.53795C13.3401 7.39238 13.5825 7.29432 13.8385 7.25118C14.0945 7.20803 14.3575 7.22093 14.6075 7.28889L22.66 9.46602C22.9874 9.55416 23.3348 9.54753 23.6583 9.44698C23.9817 9.34643 24.2665 9.15649 24.4765 8.90128L29.6541 2.62633H29.6484Z" stroke="#4E4E4E" stroke-width="2.5"/>
</svg>
