<svg width="436" height="81" viewBox="0 0 436 81" fill="none" xmlns="http://www.w3.org/2000/svg">
<path fill-rule="evenodd" clip-rule="evenodd" d="M5.76091 65.4584C5.76091 65.4584 11.0649 54.3292 17.1329 45.0441C23.1588 35.8268 29.9512 28.4535 29.9512 28.4535C29.9512 28.4535 38.6787 18.5189 47.0042 28.4535C55.3348 38.3825 47.4012 48.3058 47.4012 48.3058C47.4012 48.3058 39.8769 55.5746 30.9659 61.8013C22.4369 67.757 12.5037 72.6848 12.5037 72.6848C12.5037 72.6848 8.93633 75.8391 6.15784 72.6848C3.38182 69.522 5.76091 65.4584 5.76091 65.4584Z" fill="#757575"/>
<path fill-rule="evenodd" clip-rule="evenodd" d="M2.19355 55.5357C2.19355 55.5357 9.44742 39.1992 17.1007 30.0581C25.6545 19.8468 34.7119 16.7094 34.7119 16.7094C34.7119 16.7094 43.4121 12.6768 51.7426 20.7984C60.0707 28.9201 58.5053 41.0912 58.5053 41.0912C58.5053 41.0912 56.4884 52.1159 47.5079 61.5648C38.0585 71.505 21.6257 79.9034 21.6257 79.9034C21.6257 79.9034 53.3527 88.0279 68.818 60.0483C84.2833 32.0575 61.6782 8.13309 61.6782 8.13309C61.6782 8.13309 33.923 -13.0747 13.2951 13.1032C-7.32529 39.2783 2.19355 55.5357 2.19355 55.5357V55.5357Z" fill="#757575"/>
<path fill-rule="evenodd" clip-rule="evenodd" d="M119.183 0.0079701H98.9595L83.8887 74.9439H126.72L129.893 53.7305H109.667L119.183 0.0079701V0.0079701ZM182.238 0.917273C152.495 -5.85452 139.806 27.0895 139.806 27.0895C139.806 27.0895 121.562 70.8746 153.686 76.2909C185.81 81.7129 198.899 44.2393 198.899 44.2393C198.899 44.2393 211.982 7.68342 182.238 0.917273V0.917273ZM179.462 39.2776C179.462 39.2776 173.515 54.6201 161.617 53.2759C149.719 51.9204 157.253 34.7734 157.253 34.7734C157.253 34.7734 163.996 18.5217 174.309 21.6788C184.617 24.836 179.462 39.2776 179.462 39.2776ZM210.402 0.917273H234.191L238.552 43.3413L256.796 0.465455H277.813L239.346 75.8391H222.295L210.402 0.917273V0.917273ZM313.504 1.36629H288.128L252.826 75.3901H275.429L279.795 64.998H298.041L300.019 76.7456H321.039L313.504 1.36629ZM284.95 47.4105L296.057 24.3813L298.044 47.4105H284.95ZM326.99 1.36629H375.368L370.612 20.7724H357.529L346.427 76.2909H325.802L337.31 19.4197H322.629L326.99 1.36629V1.36629ZM416.477 0.917273C386.733 -5.85452 374.038 27.0895 374.038 27.0895C374.038 27.0895 355.799 70.8746 387.926 76.2909C420.05 81.7129 433.134 44.2393 433.134 44.2393C433.134 44.2393 446.217 7.68342 416.477 0.917273V0.917273ZM413.696 39.2776C413.696 39.2776 407.755 54.6201 395.862 53.2759C383.957 51.9204 391.491 34.7734 391.491 34.7734C391.491 34.7734 398.236 18.5217 408.546 21.6788C418.857 24.836 413.696 39.2776 413.696 39.2776Z" fill="#757575"/>
</svg>
