<svg width="40" height="63" viewBox="0 0 40 63" fill="none" xmlns="http://www.w3.org/2000/svg">
<path d="M21.2 29C20.4 28.8 19.6 28.4 19 27.8C18.4 27.6 18.2 27 18.2 26.6C18.2 26.2 18.4 25.6 18.8 25.4C19.4 25 20 24.6 20.6 24.8C21.8 24.8 22.8 25.4 23.4 26.2L25.2 23.8C24.6 23.2 24 22.8 23.4 22.4C22.8 22 22 21.8 21.2 21.8V19H18.8V21.8C17.8 22 16.8 22.6 16 23.4C15.2 24.4 14.6 25.6 14.8 26.8C14.8 28 15.2 29.2 16 30C17 31 18.4 31.6 19.6 32.2C20.2 32.4 21 32.8 21.6 33.2C22 33.6 22.2 34.2 22.2 34.8C22.2 35.4 22 36 21.6 36.6C21 37.2 20.2 37.4 19.6 37.4C18.8 37.4 17.8 37.2 17.2 36.6C16.6 36.2 16 35.6 15.6 35L13.6 37.2C14.2 38 14.8 38.6 15.6 39.2C16.6 39.8 17.8 40.4 19 40.4V43H21.2V40C22.4 39.8 23.4 39.2 24.2 38.4C25.2 37.4 25.8 35.8 25.8 34.4C25.8 33.2 25.4 31.8 24.4 31C23.4 30 22.4 29.4 21.2 29ZM20 15C11.2 15 4 22.2 4 31C4 39.8 11.2 47 20 47C28.8 47 36 39.8 36 31C36 22.2 28.8 15 20 15ZM20 44.8C12.4 44.8 6.2 38.6 6.2 31C6.2 23.4 12.4 17.2 20 17.2C27.6 17.2 33.8 23.4 33.8 31C33.8 38.6 27.6 44.8 20 44.8Z" fill="#4E4E4E"/>
<path d="M14.5778 14.3173C14.7985 14.3186 15.0145 14.2541 15.1985 14.1321C15.3824 14.0101 15.5258 13.8361 15.6104 13.6323C15.695 13.4284 15.7171 13.204 15.6736 12.9876C15.6302 12.7713 15.5234 12.5727 15.3667 12.4173L11.2444 8.26174H31.1111C31.4058 8.26174 31.6884 8.14467 31.8968 7.9363C32.1052 7.72793 32.2222 7.44531 32.2222 7.15062C32.2222 6.85594 32.1052 6.57332 31.8968 6.36495C31.6884 6.15658 31.4058 6.03951 31.1111 6.03951H11.2444L15.3667 1.89507C15.4695 1.79147 15.551 1.66863 15.6064 1.53355C15.6618 1.39847 15.69 1.2538 15.6895 1.10781C15.689 0.961813 15.6597 0.81735 15.6034 0.682666C15.547 0.547982 15.4647 0.425716 15.3611 0.322847C15.2575 0.219978 15.1347 0.138522 14.9996 0.0831287C14.8645 0.0277357 14.7198 -0.00050894 14.5738 6.94124e-06C14.279 0.00104881 13.9966 0.119176 13.7889 0.328403L7 7.15062L13.7889 13.9728C13.8909 14.0798 14.0132 14.1654 14.1486 14.2246C14.2841 14.2837 14.43 14.3152 14.5778 14.3173Z" fill="#4E4E4E"/>
<path d="M27.4444 48.3324C27.2367 48.1217 26.9537 48.0021 26.6579 48C26.362 47.9979 26.0774 48.1135 25.8667 48.3212C25.656 48.529 25.5364 48.8119 25.5343 49.1078C25.5323 49.4037 25.6478 49.6883 25.8556 49.899L29.9889 54.0768H10.1111C9.81643 54.0768 9.53381 54.1939 9.32544 54.4022C9.11706 54.6106 9 54.8932 9 55.1879C9 55.4826 9.11706 55.7652 9.32544 55.9736C9.53381 56.182 9.81643 56.299 10.1111 56.299H29.9889L25.8556 60.4101C25.7527 60.5137 25.6712 60.6366 25.6158 60.7717C25.5604 60.9067 25.5322 61.0514 25.5327 61.1974C25.5332 61.3434 25.5625 61.4878 25.6188 61.6225C25.6752 61.7572 25.7575 61.8795 25.8611 61.9824C25.9647 62.0852 26.0876 62.1667 26.2226 62.2221C26.3577 62.2775 26.5024 62.3057 26.6484 62.3052C26.7944 62.3047 26.9388 62.2754 27.0735 62.2191C27.2082 62.1627 27.3305 62.0804 27.4333 61.9768L34.2222 55.1879L27.4444 48.3324Z" fill="#4E4E4E"/>
</svg>
