<svg width="59" height="58" viewBox="0 0 59 58" fill="none" xmlns="http://www.w3.org/2000/svg">
<path d="M47.0501 12.3035L43.9143 15.8981C50.6736 20.5912 54.0452 28.1893 52.7145 35.7293C51.7397 41.262 48.408 46.1249 43.334 49.4228C38.2582 52.719 32.0494 54.0588 25.8489 53.1845C13.0491 51.3861 4.2727 40.6313 6.28473 29.2091C7.25956 23.6757 10.5923 18.8126 15.667 15.5155C20.0976 12.6375 25.392 11.2552 30.7911 11.5294L26.3782 15.6604L29.6519 18.448L36.6179 11.9224L36.6196 11.9248L39.7403 9.00072L36.469 6.21609L36.4673 6.21699L29.1568 0L26.0337 2.92411L30.7971 6.97249C24.3219 6.6992 17.9796 8.37992 12.663 11.8341C6.48634 15.8472 2.43074 21.7661 1.24324 28.5021C-1.20622 42.4042 9.47521 55.4964 25.0552 57.6842C26.5611 57.8961 28.0662 58 29.5617 58C35.5629 58 41.394 56.3169 46.3379 53.1042C52.5152 49.0906 56.5702 43.1717 57.7577 36.4372C59.3776 27.2617 55.2743 18.0137 47.0501 12.3035Z" fill="#4E4E4E"/>
<path d="M32.3024 45.4888V45.4879H32.3027V42.8667C35.7857 42.5198 39.1744 40.5565 39.1744 36.8293C39.1744 31.765 33.8971 31.1843 30.0424 30.7608C27.5779 30.498 25.6916 30.193 25.6916 28.8607C25.6916 27.0085 28.6174 26.8088 29.8757 26.8088C31.7432 26.8088 33.7358 27.5921 34.4127 28.5919L34.6093 28.8825L38.481 27.2838L38.2895 26.9354C36.8467 24.3034 34.2611 23.542 32.3017 23.2346V20.9268H27.7681V23.2247C23.5474 23.7802 21.0409 25.8704 21.0409 28.8607C21.0409 33.7367 26.0026 34.2315 29.6224 34.5937C32.8485 34.9331 34.3503 35.6443 34.3503 36.8293C34.3503 39.0931 30.8368 39.27 29.7597 39.27C27.3622 39.27 25.0506 38.2026 24.382 36.7853L24.216 36.4354L20.0098 38.0266L20.1775 38.3765C21.423 40.978 24.1107 42.6081 27.7687 42.9936V45.4888H32.3024V45.4888Z" fill="#4E4E4E"/>
</svg>
