<svg width="343" height="71" viewBox="0 0 343 71" fill="none" xmlns="http://www.w3.org/2000/svg">
<path d="M314.37 61.16C315.31 60.7148 316.171 60.1205 316.92 59.4C318.46 58.03 318.71 56.24 320.09 54.51C321.592 52.7705 323.191 51.1178 324.88 49.56C324.396 51.6437 323.751 53.6865 322.95 55.67C322.341 57.143 321.337 58.4196 320.05 59.36C320.318 59.5188 320.62 59.6084 320.931 59.6206C321.242 59.6328 321.551 59.5673 321.83 59.43C322.937 58.804 324.2 58.5089 325.47 58.58C327.315 58.8893 329.21 58.5687 330.85 57.67C332.78 56.53 334.49 55.41 334.49 55.41C333.929 56.7244 333.108 57.9121 332.077 58.9018C331.046 59.8916 329.826 60.663 328.49 61.17C325.39 62.5 321.75 62.47 320.62 61.85C319.58 61.2221 318.346 60.9946 317.15 61.21C316.238 61.3585 315.306 61.3416 314.4 61.16" fill="#757575"/>
<path d="M329.94 41.42C329.947 43.0336 330.037 44.6457 330.21 46.25C330.398 47.6095 330.204 48.9944 329.65 50.25C329.14 51.45 328.27 53.15 328.89 53.49C329.51 53.83 329.75 52.49 331.12 51.49C332.49 50.49 334.97 49.26 336.32 48.49C337.841 47.4793 339.16 46.194 340.21 44.7C339.463 48.2272 337.454 51.3601 334.56 53.51C331.46 55.64 325.31 56.19 325.31 56.19C325.834 55.6132 326.181 54.8982 326.31 54.13C326.65 52.65 326.81 49.53 327.43 47.54C328.182 45.4708 329.04 43.4415 330 41.46" fill="#757575"/>
<path d="M332.47 33.32C333.235 35.1843 333.902 37.0869 334.47 39.02C334.559 40.6875 334.516 42.3594 334.34 44.02C335.446 42.9521 336.416 41.7533 337.23 40.45C338.35 38.68 339.95 38.06 340.87 36.63C341.79 35.2 342.13 34.63 342.13 34.63C341.647 36.7582 341.016 38.85 340.24 40.89C338.59 44.74 332 48.81 332 48.81C332.284 47.7133 332.459 46.5912 332.52 45.46C332.517 43.3013 332.33 41.1468 331.96 39.02C331.979 37.1128 332.15 35.2101 332.47 33.33" fill="#757575"/>
<path d="M332.37 24.19C332.37 24.19 332.88 24.82 333.96 26.52C335.04 28.22 336.46 30.04 336.52 31.07C336.58 32.1 337.08 33.35 337.42 33.29C337.76 33.23 337.76 32.07 338.28 30.29C338.8 28.51 340.28 26.79 340.55 25.49C340.76 24.43 341.17 22.92 341.17 22.92C341.618 25.6201 341.563 28.3796 341.01 31.06C340.396 33.2823 339.202 35.3013 337.55 36.91C337.2 37.36 336.55 38 336.55 38C336.55 38 336.89 38.33 335.87 36.06C334.85 33.79 334.14 32.38 333.24 30.7C332.55 29.42 332.35 24.18 332.35 24.18" fill="#757575"/>
<path d="M330.09 16.7C331.392 17.4494 332.603 18.3452 333.7 19.37C334.98 20.75 336.41 23.32 336.86 23.2C337.31 23.08 336.86 20.92 336.95 20.07C337.192 18.1769 337.286 16.2677 337.23 14.36C337.06 13.36 336.75 11.89 336.75 11.89C336.75 11.89 339.57 16.02 339.51 18.97C339.45 21.92 339.6 22.59 338.27 24.89C337.784 25.8115 337.402 26.7841 337.13 27.79C336.748 27.0546 336.285 26.3638 335.75 25.73C334.75 24.53 332.69 22.49 331.95 20.66C331.21 18.83 330.09 16.66 330.09 16.66" fill="#757575"/>
<path d="M326.34 9.45001C326.925 9.9653 327.539 10.4461 328.18 10.89C329.348 11.5227 330.474 12.2308 331.55 13.01C332.33 13.81 333.33 14.74 333.74 14.5C334.15 14.26 333.62 13.57 333 11.86C332.38 10.15 332.36 8.46 331.86 7.72C331.449 7.02784 331.114 6.29364 330.86 5.53C330.86 5.53 333.98 7.96001 334.56 9.95001C335.14 11.94 335.05 18.2 335.05 18.2C334.585 17.5956 334.036 17.0603 333.42 16.61C332.33 15.82 329.62 13.85 328.7 13.12C327.581 12.1397 326.754 10.8698 326.31 9.45001" fill="#757575"/>
<path d="M323.8 2.77002C325.279 3.17805 326.669 3.85613 327.9 4.77002C329.49 6.14002 330.8 9.90002 330.8 9.90002C329.487 9.25446 328.246 8.46996 327.1 7.56C325.869 6.04743 324.765 4.43524 323.8 2.74002" fill="#757575"/>
<path d="M275.45 63.21C277.031 64.0223 278.773 64.4732 280.55 64.53C282.77 64.36 284.83 63.62 288.49 62.67C292.15 61.72 294.97 61.52 296.62 61.81C298.27 62.1 301.15 62.47 301.15 62.47C301.15 62.47 304.9 61.89 307.82 61.73C309.743 61.7419 311.65 62.0801 313.46 62.73C315.58 63.4 319.46 64.63 321.57 64.66C323.49 64.679 325.389 64.269 327.13 63.46C327.13 63.46 326.83 65.78 319.23 66.46C314.71 66.88 312.85 66.54 310.87 65.27C308.89 64 306.7 62.93 305.72 62.88C304.893 62.8617 304.065 62.8884 303.24 62.96C304.679 63.4786 306.049 64.1704 307.32 65.02C308.67 66.1 312.18 69.02 312.18 69.02L311.31 70.02C310.311 68.6447 309.103 67.4335 307.73 66.43C305.5 64.83 302.39 63.21 301.23 63.21C300.07 63.21 296.29 64.94 293.85 67.21C292.879 68.0106 292.006 68.9236 291.25 69.93L290.35 69.02C291.634 67.7907 293.027 66.6795 294.51 65.7C296.091 64.674 297.726 63.7359 299.41 62.89C299.41 62.89 299.33 62.65 297.89 62.77C296.067 62.8869 294.314 63.5141 292.83 64.58C290.35 66.11 289.4 66.47 287.26 66.72C284.283 66.9338 281.294 66.5146 278.49 65.49C275.98 64.42 275.49 63.19 275.49 63.19" fill="#757575"/>
<path d="M267.82 55.05C267.82 55.05 270.12 56.87 271.19 57.48C273.59 58.84 275.69 58.22 277.19 58.48C278.331 58.6111 279.452 58.8763 280.53 59.27C280.99 59.48 282.33 59.6 282.47 59.35C282.61 59.1 281.23 58.5 280.2 56.67C279.117 54.4447 278.314 52.0933 277.81 49.67C279.441 50.9094 280.895 52.3663 282.13 54C284.19 56.72 283.91 58.06 285.35 59.27C286.251 60.0372 287.23 60.7076 288.27 61.27C287.194 61.1584 286.11 61.135 285.03 61.2C283.67 61.32 281.39 62.25 279.3 62.2C277.605 62.2701 275.915 61.967 274.349 61.3121C272.784 60.6572 271.381 59.6665 270.24 58.41C269.252 57.47 268.427 56.3715 267.8 55.16" fill="#757575"/>
<path d="M262.06 44.84C263.04 46.1034 264.16 47.2509 265.4 48.26C267.4 49.86 270.4 50.81 271.4 51.97C272.4 53.13 272.87 54.07 273.4 53.79C273.93 53.51 273.05 52.49 272.67 50.98C272.194 48.6214 272.066 46.2057 272.29 43.81C272.399 43.1324 272.429 42.4445 272.38 41.76C273.118 43.0393 273.786 44.3579 274.38 45.71C275.38 47.93 275.29 51.76 275.73 53.46C275.998 54.5259 276.474 55.5284 277.13 56.41C275.58 56.3387 274.044 56.0904 272.55 55.67C271.03 55.09 266.75 53.53 265.14 50.89C263.991 48.9299 262.946 46.9104 262.01 44.84" fill="#757575"/>
<path d="M260.21 34.7C260.592 35.6297 261.137 36.4833 261.82 37.22C262.799 38.0727 263.718 38.9915 264.57 39.97C265.38 40.97 267.3 44.61 267.91 44.5C268.52 44.39 267.67 42.5 267.86 40.67C268.265 38.2603 269.045 35.9287 270.17 33.76C270.417 35.8206 270.53 37.8949 270.51 39.97C270.4 42.28 269.6 44.87 269.89 46.19C270.18 47.51 270.34 49.19 270.34 49.19C268.543 47.9853 266.823 46.6694 265.19 45.25C263.06 43.31 261.11 39.07 260.74 37.75C260.494 36.7636 260.317 35.7611 260.21 34.75" fill="#757575"/>
<path d="M260.99 23.14C260.99 23.14 260.61 28.86 261.33 31.46C262.121 34.1116 263.63 36.4927 265.69 38.34C265.915 37.3295 266.25 36.3469 266.69 35.41C267.4 33.93 268.51 32.46 268.96 31.26C269.566 29.1221 269.919 26.9203 270.01 24.7C270.01 24.7 269.24 25.89 268.53 26.84C267.64 27.9659 266.894 29.1988 266.31 30.51C265.65 32.08 265.56 33.51 264.82 33.6C263.82 33.69 264.66 32.2 263.82 30.17C262.98 28.14 261.72 26.1 261.6 25.11C261.498 24.4204 261.302 23.7477 261.02 23.11" fill="#757575"/>
<path d="M265.51 12.09C264.229 13.8541 263.342 15.873 262.91 18.01C262.58 20.86 262.79 23.14 263.91 25.01C264.418 26.0035 264.756 27.075 264.91 28.18C265.237 27.4453 265.683 26.7695 266.23 26.18C267.647 24.8349 268.905 23.3318 269.98 21.7C270.806 20.2226 271.534 18.6927 272.16 17.12C271.143 17.7006 270.179 18.3698 269.28 19.12C267.769 20.4594 266.462 22.0125 265.4 23.73C265.188 23.5255 265.032 23.2704 264.946 22.9886C264.86 22.7069 264.848 22.4079 264.91 22.12C265.178 20.9841 265.279 19.8151 265.21 18.65C264.979 17.6679 264.901 16.6559 264.98 15.65C265.21 14.33 265.54 12.11 265.54 12.11" fill="#757575"/>
<path d="M271.67 5.70001C271.67 5.70001 268.67 7.55002 267.81 9.86002C267.18 11.62 267.43 13.48 267.14 15.33C266.964 16.3691 266.994 17.4328 267.23 18.46C267.608 17.8781 268.051 17.3412 268.55 16.86C269.62 15.7 271.31 15.01 272.55 14.17C274.173 12.9719 275.452 11.3683 276.26 9.52002C275.562 10.1673 274.816 10.7623 274.03 11.3C272.939 11.8346 271.884 12.4392 270.87 13.11C270.268 13.6976 269.804 14.4114 269.51 15.2C269.251 14.9664 269.057 14.6691 268.949 14.3376C268.84 14.006 268.82 13.6517 268.89 13.31C269.28 12.4285 269.614 11.5234 269.89 10.6C270.067 9.50777 270.372 8.44033 270.8 7.42001C271.2 6.74001 271.7 5.70001 271.7 5.70001" fill="#757575"/>
<path d="M273.89 5.55002C275.13 4.36002 278.58 3.09003 278.58 3.09003C277.684 4.55586 276.649 5.93218 275.49 7.20001C274.257 8.42825 272.84 9.45719 271.29 10.25C271.683 8.46462 272.587 6.83187 273.89 5.55002Z" fill="#757575"/>
<path d="M290.04 9.62003C293.23 9.62003 299.63 13.07 299.63 17.62C299.546 19.4587 298.742 21.1903 297.39 22.44C297.445 23.1393 297.401 23.8428 297.26 24.53C296.84 25.45 296.42 25.18 295.87 26.02C295.32 26.86 295.08 28.15 292.76 28.15C290.44 28.15 290.49 27.4 289.37 27.4C289.003 27.4358 288.648 27.5499 288.329 27.7344C288.01 27.919 287.734 28.1698 287.52 28.47V36.77C287.52 36.77 287.75 37.83 289.84 38.95C291.186 39.801 292.662 40.426 294.21 40.8C294.85 40.8 294.85 40.06 295.64 40.06C296.43 40.06 299.64 40.06 299.64 41.54C299.64 43.02 298.07 44.04 292.31 44.04C289.583 44.069 286.857 43.9153 284.15 43.58C283.5 43.58 283.41 43.72 283.41 44.58C283.41 45.44 283.41 46.71 283.41 46.71C283.952 47.5729 284.68 48.304 285.54 48.85C286.469 49.4452 287.547 49.7642 288.65 49.77C290.289 49.7106 291.903 49.3478 293.41 48.7C294.95 47.9755 296.629 47.5966 298.33 47.59C300.13 47.59 303.33 47.17 303.33 45.32C303.33 43.47 302.64 42.81 302.64 41.38C302.64 39.95 302.87 38.68 302.18 37.99C301.49 37.3 298.42 35.07 298.42 33.82C298.42 32.57 299.54 32.01 299.67 31.31C299.8 30.61 299.72 30.2 300.18 30.06C300.468 29.9739 300.748 29.867 301.02 29.74L301.25 28.58C301.58 28.4289 301.892 28.241 302.18 28.02C302.368 27.8552 302.565 27.7016 302.77 27.56C302.696 27.3177 302.68 27.0617 302.721 26.8118C302.763 26.562 302.862 26.3252 303.01 26.12C303.245 25.9227 303.523 25.7822 303.821 25.7093C304.12 25.6365 304.431 25.6333 304.73 25.7C305.23 25.7 306.8 25.51 306.8 25.51C307.081 25.0078 307.446 24.5579 307.88 24.18C308.81 23.47 311.35 23.11 312.01 22.6C312.67 22.09 313.35 20.83 315.07 20.83C322.07 20.83 326.84 27.19 326.84 30.62C326.84 36.55 322.99 43.74 317.62 43.74C313.4 43.74 313.68 44.99 313.68 46.38C313.681 47.2866 313.995 48.1652 314.569 48.8668C315.143 49.5685 315.942 50.0501 316.83 50.23C316.83 50.23 310.2 55.23 302.5 55.23C298.785 55.2907 295.099 54.5678 291.683 53.1084C288.266 51.649 285.195 49.4859 282.67 46.76C278.502 42.3028 276.225 36.402 276.32 30.3V26.99C277.297 26.2218 278.326 25.5234 279.4 24.9C280.57 24.32 283.15 22.81 283.15 21.56C283.15 20.31 282.67 19.85 282.67 17.23C282.655 15.4959 283.141 13.7944 284.07 12.33C284.792 11.4448 285.71 10.7398 286.751 10.2711C287.793 9.80248 288.929 9.58295 290.07 9.63" fill="#757575"/>
<path d="M301.43 2C295.892 2 290.479 3.64219 285.874 6.71887C281.27 9.79555 277.681 14.1686 275.562 19.2849C273.442 24.4012 272.888 30.0311 273.968 35.4626C275.049 40.894 277.715 45.8831 281.631 49.799C285.547 53.7149 290.536 56.3816 295.968 57.462C301.399 58.5424 307.029 57.9879 312.145 55.8687C317.262 53.7494 321.635 50.1605 324.711 45.556C327.788 40.9514 329.43 35.5379 329.43 30C329.43 22.5739 326.48 15.452 321.229 10.201C315.978 4.95 308.856 2 301.43 2V2ZM322.34 12.64C323.139 13.5667 323.843 14.5718 324.44 15.64C323.825 16.25 323.12 16.7626 322.35 17.16C321.23 17.69 319.13 18.48 319.13 18.48C318.732 17.2375 318.272 16.0159 317.75 14.82C317.13 13.56 316.49 12.05 316.49 12.05C316.49 12.05 317.1 11.64 318.02 10.99C318.553 10.617 319.064 10.213 319.55 9.78C320.531 10.6961 321.463 11.6641 322.34 12.68V12.64ZM313.09 5.44C314.202 5.93168 315.266 6.52418 316.27 7.21002C317.54 8.15002 319.01 9.31 319.01 9.31C318.753 9.67242 318.435 9.98718 318.07 10.24C317.521 10.6293 316.935 10.9642 316.32 11.24C316.32 11.24 315.38 9.92001 314.59 8.92001C313.8 7.92001 312.31 6.20001 312.31 6.20001C312.489 6.03213 312.659 5.85523 312.82 5.67001C313 5.46001 313.09 5.44 313.09 5.44ZM309.43 11.27C309.21 10.3958 308.874 9.55499 308.43 8.77002C309.088 8.44583 309.729 8.08871 310.35 7.70001C311.12 7.20001 311.74 6.70001 311.74 6.70001C311.74 6.70001 313.07 8.03002 314.04 9.24002C314.635 9.99411 315.186 10.7821 315.69 11.6L313.04 12.81C312.016 13.2372 310.945 13.5426 309.85 13.72C309.755 12.897 309.618 12.0793 309.44 11.27H309.43ZM310.14 20.83C309.207 21.0071 308.26 21.0975 307.31 21.1C305.13 21.19 303.2 21.1 303.2 21.1V14.9C303.2 14.9 304.89 15.02 306.13 15.02C307.247 14.9684 308.36 14.8414 309.46 14.64C309.46 14.64 309.58 15.64 309.84 17.18C310.019 18.399 310.119 19.6282 310.14 20.86V20.83ZM310.84 4.47C311.424 4.65376 311.985 4.90548 312.51 5.22L311.7 5.85001C311.7 5.85001 311.11 5.32001 310.61 4.85001C310.092 4.42518 309.493 4.10892 308.85 3.92001C308.85 3.92001 310.07 4.30001 310.85 4.51001L310.84 4.47ZM308.63 4.25C309.564 4.7845 310.411 5.459 311.14 6.25C311.14 6.25 310.61 6.60001 309.87 7.14001C309.327 7.49477 308.724 7.74882 308.09 7.89001C308.09 7.89001 307.44 6.34002 306.98 5.46002C306.423 4.62007 305.794 3.83039 305.1 3.10001C306.324 3.30599 307.512 3.68301 308.63 4.22V4.25ZM303.07 2.96002C303.07 2.96002 304.61 2.56002 306 5.21002C306.73 6.58002 307.39 8.14001 307.39 8.14001C306.68 8.34863 305.955 8.49913 305.22 8.59003C304.504 8.652 303.782 8.63184 303.07 8.53V2.96002ZM303.07 9.33002C303.826 9.38376 304.584 9.38376 305.34 9.33002C306.14 9.27082 306.935 9.15722 307.72 8.99002C308.155 9.65182 308.432 10.4044 308.53 11.19C308.89 12.79 309.07 13.93 309.07 13.93C308.05 14.1797 307.009 14.337 305.96 14.4C304.997 14.484 304.027 14.4538 303.07 14.31V9.31V9.33002ZM302.24 2.96002L302.35 8.61002C301.492 8.66199 300.632 8.57761 299.8 8.36002C299.123 8.19717 298.471 7.94496 297.86 7.61002C298.334 6.68476 298.876 5.79568 299.48 4.95001C301.48 2.17001 302.24 2.95001 302.24 2.95001V2.96002ZM300.53 2.82001C299.8 3.51044 299.167 4.29776 298.65 5.16C298.248 5.92397 297.794 6.65909 297.29 7.36002C296.699 7.09934 296.133 6.78467 295.6 6.42001C295.23 6.15872 294.879 5.87131 294.55 5.56C295.413 4.66448 296.47 3.98006 297.64 3.56C298.566 3.18416 299.538 2.93199 300.53 2.81V2.82001ZM295.27 3.47C295.889 3.32127 296.517 3.21438 297.15 3.15002C296.524 3.46032 295.922 3.818 295.35 4.22C294.7 4.73 294.12 5.09003 294.12 5.09003C293.939 4.95957 293.781 4.80087 293.65 4.62003C293.556 4.43649 293.485 4.24154 293.44 4.04001C294.037 3.80941 294.648 3.61898 295.27 3.47V3.47ZM301.49 57.17C287.72 57.17 274.23 46.17 274.23 30.07C274.23 9.85001 292.61 4.30002 292.61 4.30002L293.72 5.30002C293.083 5.72943 292.493 6.22555 291.96 6.78C291.5 7.25918 291.079 7.77414 290.7 8.32001L291.17 8.76001C291.534 8.2332 291.943 7.73809 292.39 7.28C293.04 6.63 293.97 5.88 293.97 5.88C294.445 6.37003 294.964 6.81527 295.52 7.21002C296.13 7.57002 297 7.96002 297 7.96002C296.934 8.3223 296.823 8.67498 296.67 9.01001C296.42 9.58001 296.17 10.34 296.17 10.34L296.74 10.66C296.74 10.66 297.15 9.55002 297.35 9.11002C297.55 8.67002 297.75 8.25 297.75 8.25C298.58 8.59554 299.436 8.87313 300.31 9.08002C300.983 9.22806 301.671 9.30183 302.36 9.30002V14.12H300.59V14.94H302.42V20.99H300.89V21.7H302.38V23.93H303.11V21.77C303.11 21.77 304.11 21.77 306.61 21.7C309.11 21.63 310.75 21.34 310.75 21.34C310.75 21.34 310.68 19.04 310.46 17.34C310.332 16.3286 310.138 15.3265 309.88 14.34C310.909 14.1828 311.916 13.9042 312.88 13.51C314.47 12.87 315.83 12.26 315.83 12.26C316.438 13.1993 316.935 14.2061 317.31 15.26C317.95 16.99 318.57 18.74 318.57 18.74L317.49 19.21L317.67 19.75L318.92 19.38L319.28 20.13L319.75 19.92L319.4 19.16C320.436 18.8402 321.441 18.4251 322.4 17.92C323.277 17.4533 324.129 16.9392 324.95 16.38C327.378 20.5195 328.659 25.2312 328.66 30.03C328.66 42.35 319.15 57.19 301.51 57.19" fill="#757575"/>
<path d="M31.46 67.7V60.63L31.27 60.44C27.83 66.12 23.64 69.1 15.82 69.1C8.66001 69.1 0 65.65 0 54.02V19.02H8.21001V51.31C8.21001 59.31 12.31 62.01 17.61 62.01C27.94 62.01 31.02 52.89 31.02 45.82V19.02H39.21V67.7H31.48" fill="#757575"/>
<path d="M91.1202 67.7H82.9302V37.7C82.9302 29.23 80.5102 24.95 72.5002 24.95C67.8502 24.95 59.6602 27.95 59.6602 41.15V67.7H51.4702V19.04H59.2102V25.92H59.3902C61.1602 23.32 65.7202 17.64 74.1002 17.64C81.6302 17.64 91.1002 20.71 91.1002 34.58V67.7" fill="#757575"/>
<path d="M103.4 10.19V0.890015H111.59V10.19H103.4ZM111.59 67.7H103.4V19.04H111.59V67.7Z" fill="#757575"/>
<path d="M154.32 35.42C153.32 28.9 149.66 24.99 142.77 24.99C132.63 24.99 129.37 34.67 129.37 43.33C129.37 51.7 131.37 62.03 142.68 62.03C148.17 62.03 152.92 57.94 154.32 50.49H162.21C161.37 58.22 156.63 69.11 142.39 69.11C128.71 69.11 120.61 58.78 120.61 44.72C120.61 29.65 127.87 17.64 143.97 17.64C156.72 17.64 161.57 26.95 162.21 35.42H154.31" fill="#757575"/>
<path d="M211.74 52.45C210.7 57.8463 207.592 62.6225 203.08 65.76C200.85 67.24 197.69 69.11 189.87 69.11C176.19 69.11 168.09 58.78 168.09 44.72C168.09 29.65 175.35 17.64 191.45 17.64C205.5 17.64 212.39 28.81 212.39 46.03H176.84C176.84 56.17 181.58 62.03 190.98 62.03C198.71 62.03 203.27 56.08 203.55 52.45H211.74ZM203.92 39.51C203.45 31.97 200.29 24.99 190.33 24.99C182.79 24.99 176.84 31.99 176.84 39.51H203.92Z" fill="#757575"/>
<path d="M232.31 25.83V67.7H224.12V25.83H217.42V19.04H224.12V10.7C224.12 3.35001 228.77 0 236.77 0C237.98 0 239.2 0.0900232 240.5 0.180023V7.54001C239.5 7.44001 238.17 7.35001 237.15 7.35001C233.61 7.35001 232.31 9.12 232.31 13.03V19.03H240.5V25.82H232.31" fill="#757575"/>
</svg>
