<svg width="40" height="40" viewBox="0 0 40 40" fill="none" xmlns="http://www.w3.org/2000/svg">
<path fill-rule="evenodd" clip-rule="evenodd" d="M26.9998 16.3334C26.9998 18.1015 26.2975 19.7972 25.0472 21.0474C23.797 22.2976 22.1013 23 20.3332 23C18.5651 23 16.8694 22.2976 15.6191 21.0474C14.3689 19.7972 13.6665 18.1015 13.6665 16.3334C13.6665 14.5652 14.3689 12.8696 15.6191 11.6193C16.8694 10.3691 18.5651 9.66669 20.3332 9.66669C22.1013 9.66669 23.797 10.3691 25.0472 11.6193C26.2975 12.8696 26.9998 14.5652 26.9998 16.3334V16.3334ZM23.6665 16.3334C23.6665 17.2174 23.3153 18.0653 22.6902 18.6904C22.0651 19.3155 21.2172 19.6667 20.3332 19.6667C19.4491 19.6667 18.6013 19.3155 17.9761 18.6904C17.351 18.0653 16.9998 17.2174 16.9998 16.3334C16.9998 15.4493 17.351 14.6015 17.9761 13.9763C18.6013 13.3512 19.4491 13 20.3332 13C21.2172 13 22.0651 13.3512 22.6902 13.9763C23.3153 14.6015 23.6665 15.4493 23.6665 16.3334V16.3334Z" fill="#626262"/>
<path fill-rule="evenodd" clip-rule="evenodd" d="M20.3333 3C10.2083 3 2 11.2083 2 21.3333C2 31.4583 10.2083 39.6667 20.3333 39.6667C30.4583 39.6667 38.6667 31.4583 38.6667 21.3333C38.6667 11.2083 30.4583 3 20.3333 3ZM5.33333 21.3333C5.33333 24.8167 6.52167 28.0233 8.51333 30.57C9.91205 28.7332 11.7165 27.2446 13.7857 26.2205C15.8549 25.1965 18.1329 24.6647 20.4417 24.6667C22.7205 24.6645 24.9699 25.1825 27.0182 26.1813C29.0666 27.1801 30.8599 28.6332 32.2617 30.43C33.7057 28.536 34.6781 26.3254 35.0982 23.981C35.5183 21.6366 35.374 19.2259 34.6775 16.9483C33.9809 14.6707 32.752 12.5917 31.0925 10.8834C29.4329 9.17504 27.3904 7.88643 25.134 7.12418C22.8775 6.36193 20.472 6.14795 18.1164 6.49995C15.7609 6.85196 13.523 7.75982 11.5879 9.14842C9.65291 10.537 8.07635 12.3664 6.98871 14.4853C5.90108 16.6042 5.33363 18.9516 5.33333 21.3333V21.3333ZM20.3333 36.3333C16.8899 36.3385 13.5504 35.1539 10.88 32.98C11.9549 31.4412 13.3856 30.1849 15.0503 29.3178C16.7151 28.4508 18.5646 27.9987 20.4417 28C22.2953 27.9985 24.1225 28.4393 25.7715 29.2857C27.4206 30.1321 28.8439 31.3598 29.9233 32.8667C27.2322 35.1112 23.8376 36.3382 20.3333 36.3333V36.3333Z" fill="#626262"/>
</svg>
